<svg xmlns="http://www.w3.org/2000/svg" xmlns:xlink="http://www.w3.org/1999/xlink" viewBox="0 0 240 240">
  <defs>
    <style>
      .cls-1 {
        fill: #7f7c82;
        opacity: 0.053;
      }

      .cls-2 {
        clip-path: url(#clip-path);
      }

      .cls-3 {
        fill: #5f6468;
      }

      .cls-11, .cls-12, .cls-14, .cls-4, .cls-6, .cls-7, .cls-8 {
        fill: none;
        stroke-linecap: round;
        stroke-linejoin: round;
        stroke-miterlimit: 10;
      }

      .cls-4 {
        stroke: #c6875f;
        stroke-width: 10.196px;
      }

      .cls-5 {
        fill: #499fde;
      }

      .cls-6 {
        stroke: #b57b57;
      }

      .cls-6, .cls-7 {
        stroke-width: 13.075px;
      }

      .cls-7 {
        stroke: #f09d7e;
      }

      .cls-8 {
        stroke: #7a8084;
        stroke-width: 8.354px;
      }

      .cls-13, .cls-9 {
        fill: #3e2514;
      }

      .cls-10 {
        fill: #c6875f;
      }

      .cls-11, .cls-12, .cls-14 {
        stroke: #3e2514;
      }

      .cls-11 {
        stroke-width: 16.767px;
      }

      .cls-12 {
        stroke-width: 18.292px;
      }

      .cls-13 {
        opacity: 0.5;
      }

      .cls-14 {
        stroke-width: 1.757px;
      }

      .cls-15 {
        fill: #dceaea;
      }

      .cls-16 {
        fill: #3a377a;
      }
    </style>
    <clipPath id="clip-path">
      <path id="Path_592" data-name="Path 592" d="M116,60.884c0,26.643-18.036,45.5-18.036,45.5H6.5S-25.636,3.57,52.918.091C106.112-2.2,116,34.149,116,60.884Z" transform="translate(0.008 0.012)"/>
    </clipPath>
  </defs>
  <g id="Group_3208" data-name="Group 3208" transform="translate(-392 -309)">
    <g id="Group_3202" data-name="Group 3202" transform="translate(-254 -95)">
      <circle id="Ellipse_567" data-name="Ellipse 567" class="cls-1" cx="120" cy="120" r="120" transform="translate(646 404)"/>
      <g id="Group_3207" data-name="Group 3207" transform="translate(4 -4.995)">
        <g id="Group_3204" data-name="Group 3204" transform="translate(692 455.995)">
          <g id="Group_2512" data-name="Group 2512" class="cls-2" transform="translate(0 0)">
            <path id="Path_573" data-name="Path 573" class="cls-3" d="M41.718,140.343l24.995-2.2a15.873,15.873,0,0,0,14.374-17.121L73.4,84.952c-2.747-9.7-11.17-15.29-19.776-14.557L41.9,71.4c-8.606.732-14.649,7.508-15.656,16.663L22.4,124.046C23.224,132.744,33.112,141.167,41.718,140.343Z" transform="translate(-1.885 -5.927)"/>
            <g id="Group_2505" data-name="Group 2505" transform="translate(16.853 97.793)">
              <path id="Path_574" data-name="Path 574" class="cls-4" d="M21.33,106.8,18.4,119.069l.549,19.044" transform="translate(-18.4 -106.8)"/>
            </g>
            <path id="Path_575" data-name="Path 575" class="cls-5" d="M31.077,79.155a6.454,6.454,0,0,0-8.24,3.113L12.4,105.614l13.55,5.768L34.556,87.3A6.61,6.61,0,0,0,31.077,79.155Z" transform="translate(-1.04 -6.631)"/>
            <g id="Group_2506" data-name="Group 2506" transform="translate(78.104 93.765)">
              <path id="Path_576" data-name="Path 576" class="cls-4" d="M85.3,102.4l4.578,11.719,2.2,18.952" transform="translate(-85.3 -102.4)"/>
            </g>
            <path id="Path_577" data-name="Path 577" class="cls-5" d="M70.217,76.52a6.541,6.541,0,0,1,8.606,1.923l13.55,21.7-12.635,7.6-11.9-22.706A6.618,6.618,0,0,1,70.217,76.52Z" transform="translate(-5.663 -6.377)"/>
            <path id="Path_578" data-name="Path 578" class="cls-5" d="M68.755,130.714l-30.3,1.831c-4.028.366-6.867-2.472-6.867-6.5L31.4,89.422c.092-.549.183-11.17,7.691-11.719l17.3-1.007A11.083,11.083,0,0,1,68.388,86.767l5.86,36.256A6.336,6.336,0,0,1,68.755,130.714Z" transform="translate(-2.645 -6.461)"/>
            <line id="Line_69" data-name="Line 69" class="cls-6" x2="0.824" y2="11.261" transform="translate(46.883 61.903)"/>
            <path id="Path_579" data-name="Path 579" class="cls-7" d="M65.8,135.6" transform="translate(-5.549 -11.439)"/>
            <path id="Path_580" data-name="Path 580" class="cls-8" d="M65.5,77.6a46.054,46.054,0,0,0,9.156,27.558" transform="translate(-5.523 -6.541)"/>
            <path id="Path_581" data-name="Path 581" class="cls-8" d="M37.719,79.5A46.036,46.036,0,0,1,32.5,107.974" transform="translate(-2.737 -6.702)"/>
            <g id="Group_2511" data-name="Group 2511" transform="translate(12.916 4.406)">
              <ellipse id="Ellipse_392" data-name="Ellipse 392" class="cls-9" cx="23.988" cy="23.988" rx="23.988" ry="23.988" transform="translate(0 4.944)"/>
              <ellipse id="Ellipse_393" data-name="Ellipse 393" class="cls-9" cx="25.361" cy="25.361" rx="25.361" ry="25.361" transform="translate(11.444)"/>
              <g id="Group_2510" data-name="Group 2510" transform="translate(0.973 8.051)">
                <g id="Group_2507" data-name="Group 2507" transform="translate(3.237 0)">
                  <path id="Path_908" data-name="Path 908" class="cls-10" d="M27.467,0A27.467,27.467,0,1,1,0,27.467,27.467,27.467,0,0,1,27.467,0Z" transform="translate(0 3.802) rotate(-3.969)"/>
                </g>
                <path id="Path_582" data-name="Path 582" class="cls-11" d="M28.54,29.9s-1.923,3.937-8.24,9.064" transform="translate(-15.596 -14.971)"/>
                <path id="Path_583" data-name="Path 583" class="cls-12" d="M70.5,24.4s4.212,2.38,4.944,9.888" transform="translate(-19.835 -14.506)"/>
                <path id="Path_584" data-name="Path 584" class="cls-11" d="M35.6,19.5s8.24,7.691,27.375,4.852" transform="translate(-16.888 -14.093)"/>
                <path id="Path_585" data-name="Path 585" class="cls-11" d="M53.2,17s9.064,3.388,18.036,1.007" transform="translate(-18.374 -13.881)"/>
                <g id="Group_2508" data-name="Group 2508" transform="translate(48.707 25.978)">
                  <ellipse id="Ellipse_395" data-name="Ellipse 395" class="cls-10" cx="7.324" cy="7.324" rx="7.324" ry="7.324" transform="translate(0 1.014) rotate(-3.969)"/>
                  <path id="Path_586" data-name="Path 586" class="cls-13" d="M76.9,53.417a3.159,3.159,0,0,0,.092-6.317Z" transform="translate(-69.083 -42.401)"/>
                </g>
                <g id="Group_2509" data-name="Group 2509" transform="translate(0 29.363)">
                  <ellipse id="Ellipse_396" data-name="Ellipse 396" class="cls-10" cx="7.324" cy="7.324" rx="7.324" ry="7.324" transform="translate(0 1.014) rotate(-3.969)"/>
                  <path id="Path_587" data-name="Path 587" class="cls-13" d="M23.867,57.026a3.146,3.146,0,0,1-.916-6.226Z" transform="translate(-15.593 -46.099)"/>
                </g>
                <path id="Path_588" data-name="Path 588" class="cls-13" d="M47.982,52.355l3.388-.275a1.284,1.284,0,0,0,1.1-1.282h0a1.284,1.284,0,0,0-1.282-1.1l-3.388.275a1.284,1.284,0,0,0-1.1,1.282h0A1.149,1.149,0,0,0,47.982,52.355Z" transform="translate(-17.826 -16.643)"/>
                <ellipse id="Ellipse_397" data-name="Ellipse 397" class="cls-13" cx="2.472" cy="1.923" rx="2.472" ry="1.923" transform="translate(15.93 33.414) rotate(-3.969)"/>
                <ellipse id="Ellipse_398" data-name="Ellipse 398" class="cls-13" cx="2.472" cy="1.923" rx="2.472" ry="1.923" transform="translate(43.672 31.495) rotate(-3.969)"/>
                <ellipse id="Ellipse_399" data-name="Ellipse 399" class="cls-9" cx="1.648" cy="1.648" rx="1.648" ry="1.648" transform="translate(38.286 26.675) rotate(-3.969)"/>
                <ellipse id="Ellipse_400" data-name="Ellipse 400" class="cls-9" cx="1.648" cy="1.648" rx="1.648" ry="1.648" transform="translate(21.987 27.771) rotate(-3.969)"/>
                <path id="Path_589" data-name="Path 589" class="cls-14" d="M63.309,38.679A9.808,9.808,0,0,0,60.1,37.4a7.726,7.726,0,0,0-3.2.458" transform="translate(-18.687 -15.601)"/>
                <path id="Path_590" data-name="Path 590" class="cls-14" d="M53.85,59.6a4.528,4.528,0,0,1-3.662,2.014c-2.655.183-3.388-1.556-3.388-1.556" transform="translate(-17.834 -17.479)"/>
                <path id="Path_591" data-name="Path 591" class="cls-14" d="M36,38.575a6.037,6.037,0,0,1,2.472-1.19,4.429,4.429,0,0,1,2.472,0" transform="translate(-16.922 -15.589)"/>
              </g>
            </g>
          </g>
        </g>
        <g id="Group_3205" data-name="Group 3205" transform="translate(737.937 498.331)">
          <path id="Path_600" data-name="Path 600" class="cls-15" d="M88.567,59.854V6.74A6.76,6.76,0,0,0,81.827,0H6.74A6.76,6.76,0,0,0,0,6.74H0V59.854a6.76,6.76,0,0,0,6.74,6.74H81.827a6.848,6.848,0,0,0,6.74-6.74Z" transform="translate(0 62.627) rotate(-45)"/>
          <path id="Path_601" data-name="Path 601" class="cls-16" d="M2.831,0A2.847,2.847,0,0,0,0,2.831V39.9a2.847,2.847,0,0,0,2.831,2.831A2.847,2.847,0,0,0,5.662,39.9V2.831A2.762,2.762,0,0,0,2.831,0Z" transform="translate(18.588 60.816) rotate(-45)"/>
          <path id="Path_602" data-name="Path 602" class="cls-16" d="M2.831,32.219a2.847,2.847,0,0,0,2.831-2.831V2.831A2.847,2.847,0,0,0,2.831,0,2.941,2.941,0,0,0,0,2.831V29.253A2.968,2.968,0,0,0,2.831,32.219Z" transform="translate(28.12 51.284) rotate(-45)"/>
          <path id="Path_607" data-name="Path 607" class="cls-16" d="M2.84,32.219a2.847,2.847,0,0,0,2.831-2.831V2.831A2.847,2.847,0,0,0,2.84,0,2.941,2.941,0,0,0,.009,2.831V29.253A2.8,2.8,0,0,0,2.84,32.219Z" transform="translate(37.741 41.663) rotate(-45)"/>
          <path id="Path_608" data-name="Path 608" class="cls-16" d="M2.831,32.219a2.847,2.847,0,0,0,2.831-2.831V2.831A2.847,2.847,0,0,0,2.831,0,2.941,2.941,0,0,0,0,2.831V29.253a2.879,2.879,0,0,0,2.831,2.966Z" transform="translate(47.28 32.124) rotate(-45)"/>
          <path id="Path_609" data-name="Path 609" class="cls-16" d="M2.966,0A2.992,2.992,0,0,0,0,2.966V40.037a2.847,2.847,0,0,0,2.831,2.831,2.941,2.941,0,0,0,2.831-2.831V2.831A2.733,2.733,0,0,0,2.966,0Z" transform="translate(56.812 22.591) rotate(-45)"/>
          <circle id="Ellipse_403" data-name="Ellipse 403" class="cls-16" cx="2.966" cy="2.966" r="2.966" transform="translate(54.238 77.593) rotate(-45)"/>
          <circle id="Ellipse_404" data-name="Ellipse 404" class="cls-16" cx="2.966" cy="2.966" r="2.966" transform="translate(63.866 67.965) rotate(-45)"/>
          <circle id="Ellipse_405" data-name="Ellipse 405" class="cls-16" cx="2.966" cy="2.966" r="2.966" transform="translate(73.398 58.433) rotate(-45)"/>
        </g>
      </g>
    </g>
  </g>
</svg>
