<svg xmlns="http://www.w3.org/2000/svg" viewBox="0 0 240 242">
  <defs>
    <style>
      .cls-1 {
        fill: #fff;
      }
    </style>
  </defs>
  <g id="Group_18" data-name="Group 18" transform="translate(-1366 -1161)">
    <rect id="Rectangle_15" data-name="Rectangle 15" width="240" height="242" rx="16" transform="translate(1366 1161)"/>
    <g id="Group_16" data-name="Group 16" transform="translate(1418 1207)">
      <g id="Group_11" data-name="Group 11" transform="translate(0 79.431)">
        <path id="Path_20" data-name="Path 20" class="cls-1" d="M13.785,310.523c-4.488,0-7.9-1.253-10.258-3.759S0,300.731,0,296.126a16.247,16.247,0,0,1,1.078-6.12,13.322,13.322,0,0,1,2.943-4.546,12.2,12.2,0,0,1,4.459-2.8,16.751,16.751,0,0,1,5.625-.962,17.5,17.5,0,0,1,3.177.262,25.006,25.006,0,0,1,2.506.583,14.774,14.774,0,0,1,1.807.7c.466.233.816.437,1.049.554l-1.807,5.013a14.047,14.047,0,0,0-2.973-1.166,14.2,14.2,0,0,0-3.847-.466,8.292,8.292,0,0,0-2.8.466A6.478,6.478,0,0,0,8.8,289.19a7.3,7.3,0,0,0-1.69,2.74,11.149,11.149,0,0,0-.641,4.051,15.075,15.075,0,0,0,.408,3.555,7.655,7.655,0,0,0,1.37,2.856,6.435,6.435,0,0,0,2.448,1.894,8.782,8.782,0,0,0,3.672.7,19.622,19.622,0,0,0,2.419-.146c.729-.117,1.341-.233,1.923-.379a12.654,12.654,0,0,0,1.486-.5c.437-.175.816-.35,1.166-.525l1.719,4.984a14.008,14.008,0,0,1-3.7,1.428A21.656,21.656,0,0,1,13.785,310.523Z" transform="translate(0 -279.019)"/>
        <path id="Path_21" data-name="Path 21" class="cls-1" d="M103.575,315.716a13.118,13.118,0,0,1-.729,4.517,9.529,9.529,0,0,1-2.069,3.5,9.356,9.356,0,0,1-3.235,2.244,10.963,10.963,0,0,1-4.255.787,10.77,10.77,0,0,1-4.2-.787,9.355,9.355,0,0,1-3.235-2.244,10,10,0,0,1-2.1-3.5A13.234,13.234,0,0,1,83,315.716a12.457,12.457,0,0,1,.787-4.517,9.829,9.829,0,0,1,5.421-5.712,11.353,11.353,0,0,1,8.306,0,9.355,9.355,0,0,1,3.235,2.244,9.873,9.873,0,0,1,2.1,3.468A13.981,13.981,0,0,1,103.575,315.716Zm-6.062,0a7.436,7.436,0,0,0-1.107-4.313,3.581,3.581,0,0,0-3.118-1.574A3.667,3.667,0,0,0,90.14,311.4a7.222,7.222,0,0,0-1.107,4.313,7.7,7.7,0,0,0,1.107,4.371,3.623,3.623,0,0,0,3.147,1.6,3.507,3.507,0,0,0,3.118-1.6A7.7,7.7,0,0,0,97.513,315.716Z" transform="translate(-58.811 -295.316)"/>
        <path id="Path_22" data-name="Path 22" class="cls-1" d="M165.758,306.295a35.526,35.526,0,0,1,3.905-.816,30.948,30.948,0,0,1,5.013-.379,12.067,12.067,0,0,1,4.43.7,6.5,6.5,0,0,1,2.8,1.982,7.576,7.576,0,0,1,1.486,3.031,16.176,16.176,0,0,1,.437,3.905V326.55h-5.945V315.417a8.194,8.194,0,0,0-.758-4.08,3.109,3.109,0,0,0-2.827-1.195c-.437,0-.874.029-1.37.058-.466.029-.9.087-1.282.146V326.52H165.7V306.295Z" transform="translate(-117.409 -295.599)"/>
        <path id="Path_23" data-name="Path 23" class="cls-1" d="M242.3,286.462l5.945-.962v6.178h7.14v4.954h-7.14v7.373a5.947,5.947,0,0,0,.67,3c.437.758,1.311,1.107,2.652,1.107a11.9,11.9,0,0,0,1.982-.175,11.621,11.621,0,0,0,1.865-.5l.845,4.634a16.454,16.454,0,0,1-2.39.758,14.414,14.414,0,0,1-3.235.321,10.525,10.525,0,0,1-4.022-.67,6.447,6.447,0,0,1-2.565-1.836,7.007,7.007,0,0,1-1.341-2.856,16.234,16.234,0,0,1-.379-3.7V286.462Z" transform="translate(-171.686 -281.711)"/>
        <path id="Path_24" data-name="Path 24" class="cls-1" d="M313.019,310.983c-.525-.146-1.166-.262-1.865-.408a11.635,11.635,0,0,0-2.3-.233,12.282,12.282,0,0,0-1.341.087,5.749,5.749,0,0,0-1.166.233v16.029H300.4V306.845a32.029,32.029,0,0,1,3.76-1.049,22.445,22.445,0,0,1,4.838-.5c.321,0,.7.029,1.166.058.437.029.9.087,1.341.146.466.058.9.146,1.37.233a5.526,5.526,0,0,1,1.166.35Z" transform="translate(-212.853 -295.741)"/>
        <path id="Path_25" data-name="Path 25" class="cls-1" d="M370.475,315.716a13.118,13.118,0,0,1-.729,4.517,9.529,9.529,0,0,1-2.069,3.5,9.355,9.355,0,0,1-3.235,2.244,10.963,10.963,0,0,1-4.255.787,10.769,10.769,0,0,1-4.2-.787,9.354,9.354,0,0,1-3.235-2.244,10,10,0,0,1-2.1-3.5,13.235,13.235,0,0,1-.758-4.517,12.459,12.459,0,0,1,.787-4.517,9.828,9.828,0,0,1,5.421-5.712,11.353,11.353,0,0,1,8.306,0,9.355,9.355,0,0,1,3.235,2.244,9.873,9.873,0,0,1,2.1,3.468A13.234,13.234,0,0,1,370.475,315.716Zm-6.062,0a7.436,7.436,0,0,0-1.107-4.313,3.581,3.581,0,0,0-3.118-1.574,3.667,3.667,0,0,0-3.148,1.574,7.222,7.222,0,0,0-1.107,4.313,7.7,7.7,0,0,0,1.107,4.371,3.623,3.623,0,0,0,3.148,1.6,3.507,3.507,0,0,0,3.118-1.6A7.478,7.478,0,0,0,364.413,315.716Z" transform="translate(-247.927 -295.316)"/>
        <path id="Path_26" data-name="Path 26" class="cls-1" d="M441.193,303.829a14.781,14.781,0,0,1-4.2-.554,6.246,6.246,0,0,1-2.565-1.457,4.886,4.886,0,0,1-1.282-2.273,11.956,11.956,0,0,1-.35-3V273.462l5.945-.962v22.848a7.072,7.072,0,0,0,.117,1.428,2.431,2.431,0,0,0,.466,1.078,2.659,2.659,0,0,0,.991.729,5.913,5.913,0,0,0,1.719.35Z" transform="translate(-306.667 -272.5)"/>
      </g>
      <g id="Group_12" data-name="Group 12" transform="translate(20.896 118.105)">
        <path id="Path_27" data-name="Path 27" class="cls-1" d="M79.977,414.1c4.109,0,7.286.729,9.5,2.186s3.293,3.818,3.293,7.111c0,3.322-1.107,5.712-3.351,7.2S84,432.81,79.86,432.81H77.908v9.238H71.7v-27.22a38.67,38.67,0,0,1,4.313-.554C77.5,414.158,78.84,414.1,79.977,414.1Zm.408,5.3c-.437,0-.9,0-1.341.029s-.816.058-1.137.087v7.985H79.86a10.67,10.67,0,0,0,4.867-.874,3.371,3.371,0,0,0,1.632-3.264,4.266,4.266,0,0,0-.408-1.924,3.429,3.429,0,0,0-1.195-1.224,5.009,5.009,0,0,0-1.894-.641A16.244,16.244,0,0,0,80.385,419.4Z" transform="translate(-71.7 -411.506)"/>
        <path id="Path_28" data-name="Path 28" class="cls-1" d="M170.175,447.116a13.117,13.117,0,0,1-.729,4.517,9.529,9.529,0,0,1-2.069,3.5,9.356,9.356,0,0,1-3.235,2.244,10.963,10.963,0,0,1-4.255.787,10.77,10.77,0,0,1-4.2-.787,9.355,9.355,0,0,1-3.235-2.244,10,10,0,0,1-2.1-3.5,13.234,13.234,0,0,1-.758-4.517,12.458,12.458,0,0,1,.787-4.517,9.829,9.829,0,0,1,5.421-5.712,11.352,11.352,0,0,1,8.306,0,9.354,9.354,0,0,1,3.235,2.244,9.873,9.873,0,0,1,2.1,3.468A13.849,13.849,0,0,1,170.175,447.116Zm-6.062,0a7.435,7.435,0,0,0-1.107-4.313,3.581,3.581,0,0,0-3.118-1.574,3.667,3.667,0,0,0-3.147,1.574,7.222,7.222,0,0,0-1.107,4.313,7.7,7.7,0,0,0,1.107,4.371,3.623,3.623,0,0,0,3.147,1.6,3.507,3.507,0,0,0,3.118-1.6A7.767,7.767,0,0,0,164.113,447.116Z" transform="translate(-126.897 -427.095)"/>
        <path id="Path_29" data-name="Path 29" class="cls-1" d="M237.653,408.7a3.255,3.255,0,0,1-1.049,2.565,3.689,3.689,0,0,1-2.477.933,3.635,3.635,0,0,1-2.477-.933,3.659,3.659,0,0,1,0-5.129,3.689,3.689,0,0,1,2.477-.933,3.635,3.635,0,0,1,2.477.933A3.3,3.3,0,0,1,237.653,408.7Zm-.554,27.045h-5.945V414.759H237.1Z" transform="translate(-184.291 -405.2)"/>
        <path id="Path_30" data-name="Path 30" class="cls-1" d="M268.458,437.595a35.558,35.558,0,0,1,3.905-.816,30.956,30.956,0,0,1,5.013-.379,12.068,12.068,0,0,1,4.43.7,6.5,6.5,0,0,1,2.8,1.982,7.577,7.577,0,0,1,1.486,3.031,16.177,16.177,0,0,1,.437,3.905V457.85h-5.945V446.717a8.2,8.2,0,0,0-.758-4.08A3.109,3.109,0,0,0,277,441.442c-.437,0-.874.029-1.37.058-.466.029-.9.087-1.282.146v16.2H268.4V437.595Z" transform="translate(-211.075 -427.307)"/>
        <path id="Path_31" data-name="Path 31" class="cls-1" d="M345,417.762l5.945-.962v6.179h7.14v4.954h-7.14v7.373a5.948,5.948,0,0,0,.67,3c.437.758,1.312,1.107,2.652,1.107a11.9,11.9,0,0,0,1.982-.175,11.629,11.629,0,0,0,1.865-.5l.845,4.634a16.447,16.447,0,0,1-2.39.758,14.41,14.41,0,0,1-3.235.321,10.524,10.524,0,0,1-4.022-.67,6.445,6.445,0,0,1-2.565-1.836,7.006,7.006,0,0,1-1.341-2.856,16.234,16.234,0,0,1-.379-3.7V417.762Z" transform="translate(-265.351 -413.419)"/>
      </g>
      <g id="Group_13" data-name="Group 13" transform="translate(33.606)">
        <path id="Path_32" data-name="Path 32" class="cls-1" d="M162.083,65.214a21.88,21.88,0,0,1-12.473-3.905,21.83,21.83,0,1,1-21.741-37.682,21.822,21.822,0,1,1,43.482,0,21.828,21.828,0,0,1-9.268,41.588ZM149.61,55.539a2.605,2.605,0,0,1,1.661.612,16.723,16.723,0,1,0,16.437-28.5,2.581,2.581,0,0,1-1.661-2.856,16.969,16.969,0,0,0-1.953-11.366,16.73,16.73,0,0,0-30.95,11.366,2.521,2.521,0,0,1-1.661,2.856,16.855,16.855,0,0,0-8.86,7.373,16.737,16.737,0,0,0,25.326,21.129A2.605,2.605,0,0,1,149.61,55.539Z" transform="translate(-115.311 0.053)"/>
      </g>
      <path id="Path_33" data-name="Path 33" class="cls-1" d="M203.807,100.759a7.053,7.053,0,1,1,6-10.7l4.838-2.943a12.707,12.707,0,1,0,0,13.173l-4.838-2.943A7.052,7.052,0,0,1,203.807,100.759Z" transform="translate(-135.407 -57.378)"/>
    </g>
  </g>
</svg>
