<svg xmlns="http://www.w3.org/2000/svg" xmlns:xlink="http://www.w3.org/1999/xlink" viewBox="-19936 -16585 168.223 129.111">
  <defs>
    <style>
      .cls-1 {
        clip-path: url(#clip-path);
      }

      .cls-2 {
        fill: #5f6468;
      }

      .cls-10, .cls-11, .cls-13, .cls-15, .cls-16, .cls-19, .cls-20, .cls-23, .cls-3, .cls-5, .cls-6, .cls-7 {
        fill: none;
      }

      .cls-3 {
        stroke: #c6875f;
        stroke-width: 10.196px;
      }

      .cls-10, .cls-11, .cls-13, .cls-15, .cls-16, .cls-17, .cls-19, .cls-20, .cls-21, .cls-3, .cls-5, .cls-6, .cls-7 {
        stroke-linecap: round;
      }

      .cls-10, .cls-11, .cls-13, .cls-3, .cls-5, .cls-6, .cls-7 {
        stroke-linejoin: round;
      }

      .cls-10, .cls-11, .cls-13, .cls-15, .cls-16, .cls-17, .cls-19, .cls-20, .cls-21, .cls-23, .cls-3, .cls-5, .cls-6, .cls-7 {
        stroke-miterlimit: 10;
      }

      .cls-4 {
        fill: #499fde;
      }

      .cls-5 {
        stroke: #b57b57;
      }

      .cls-5, .cls-6 {
        stroke-width: 13.075px;
      }

      .cls-6 {
        stroke: #f09d7e;
      }

      .cls-7 {
        stroke: #7a8084;
        stroke-width: 8.354px;
      }

      .cls-12, .cls-8 {
        fill: #3e2514;
      }

      .cls-9 {
        fill: #c6875f;
      }

      .cls-10, .cls-11, .cls-13 {
        stroke: #3e2514;
      }

      .cls-10 {
        stroke-width: 16.767px;
      }

      .cls-11 {
        stroke-width: 18.292px;
      }

      .cls-12 {
        opacity: 0.5;
      }

      .cls-13 {
        stroke-width: 1.757px;
      }

      .cls-14 {
        fill: #cad7d8;
      }

      .cls-15, .cls-16, .cls-17, .cls-19, .cls-20, .cls-21 {
        stroke: #00a551;
      }

      .cls-15, .cls-17 {
        stroke-width: 1.544px;
      }

      .cls-16 {
        stroke-width: 2.82px;
      }

      .cls-17, .cls-21 {
        fill: #fff;
      }

      .cls-18 {
        fill: #dceaea;
      }

      .cls-19, .cls-21 {
        stroke-width: 1.772px;
      }

      .cls-20 {
        stroke-width: 3.236px;
      }

      .cls-22 {
        fill: #ec3d15;
      }

      .cls-23 {
        stroke: #f6f6f6;
        stroke-width: 2.619px;
      }
    </style>
    <clipPath id="clip-path">
      <path id="Path_592" data-name="Path 592" d="M126.7,66.5c0,29.1-19.7,49.7-19.7,49.7H7.1S-28,3.9,57.8.1C115.9-2.4,126.7,37.3,126.7,66.5Z"/>
    </clipPath>
  </defs>
  <g id="Group_2528" data-name="Group 2528" transform="translate(-19935.992 -16584.988)">
    <g id="Group_2525" data-name="Group 2525">
      <g id="Group_2513" data-name="Group 2513">
        <g id="Group_2512" data-name="Group 2512" class="cls-1">
          <path id="Path_573" data-name="Path 573" class="cls-2" d="M43.5,146.8l27.3-2.4a17.337,17.337,0,0,0,15.7-18.7L78.1,86.3c-3-10.6-12.2-16.7-21.6-15.9L43.7,71.5c-9.4.8-16,8.2-17.1,18.2L22.4,129C23.3,138.5,34.1,147.7,43.5,146.8Z"/>
          <g id="Group_2505" data-name="Group 2505">
            <path id="Path_574" data-name="Path 574" class="cls-3" d="M21.6,106.8l-3.2,13.4L19,141"/>
          </g>
          <path id="Path_575" data-name="Path 575" class="cls-4" d="M32.8,79.2a7.05,7.05,0,0,0-9,3.4L12.4,108.1l14.8,6.3,9.4-26.3A7.22,7.22,0,0,0,32.8,79.2Z"/>
          <g id="Group_2506" data-name="Group 2506">
            <path id="Path_576" data-name="Path 576" class="cls-3" d="M85.3,102.4l5,12.8,2.4,20.7"/>
          </g>
          <path id="Path_577" data-name="Path 577" class="cls-4" d="M70.5,76.6a7.144,7.144,0,0,1,9.4,2.1l14.8,23.7-13.8,8.3-13-24.8A7.228,7.228,0,0,1,70.5,76.6Z"/>
          <path id="Path_578" data-name="Path 578" class="cls-4" d="M72.2,135.7l-33.1,2c-4.4.4-7.5-2.7-7.5-7.1l-.2-40c.1-.6.2-12.2,8.4-12.8l18.9-1.1a12.105,12.105,0,0,1,13.1,11l6.4,39.6A6.92,6.92,0,0,1,72.2,135.7Z"/>
          <line id="Line_69" data-name="Line 69" class="cls-5" x2="0.9" y2="12.3" transform="translate(51.2 67.6)"/>
          <path id="Path_579" data-name="Path 579" class="cls-6" d="M65.8,135.6"/>
          <path id="Path_580" data-name="Path 580" class="cls-7" d="M65.5,77.6a50.3,50.3,0,0,0,10,30.1"/>
          <path id="Path_581" data-name="Path 581" class="cls-7" d="M38.2,79.5a50.281,50.281,0,0,1-5.7,31.1"/>
          <g id="Group_2511" data-name="Group 2511">
            <circle id="Ellipse_392" data-name="Ellipse 392" class="cls-8" cx="26.2" cy="26.2" r="26.2" transform="translate(14.1 10.2)"/>
            <circle id="Ellipse_393" data-name="Ellipse 393" class="cls-8" cx="27.7" cy="27.7" r="27.7" transform="translate(26.6 4.8)"/>
            <g id="Group_2510" data-name="Group 2510">
              <g id="Group_2507" data-name="Group 2507">
                <path id="Path_908" data-name="Path 908" class="cls-9" d="M30,0A30,30,0,1,1,0,30,30,30,0,0,1,30,0Z" transform="translate(18.698 17.747) rotate(-3.969)"/>
              </g>
              <path id="Path_582" data-name="Path 582" class="cls-10" d="M29.3,29.9s-2.1,4.3-9,9.9"/>
              <path id="Path_583" data-name="Path 583" class="cls-11" d="M70.5,24.4s4.6,2.6,5.4,10.8"/>
              <path id="Path_584" data-name="Path 584" class="cls-10" d="M35.6,19.5s9,8.4,29.9,5.3"/>
              <path id="Path_585" data-name="Path 585" class="cls-10" d="M53.2,17s9.9,3.7,19.7,1.1"/>
              <g id="Group_2508" data-name="Group 2508">
                <circle id="Ellipse_395" data-name="Ellipse 395" class="cls-9" cx="8" cy="8" r="8" transform="translate(68.362 43.075) rotate(-3.969)"/>
                <path id="Path_586" data-name="Path 586" class="cls-12" d="M76.9,54a3.45,3.45,0,0,0,.1-6.9Z"/>
              </g>
              <g id="Group_2509" data-name="Group 2509">
                <circle id="Ellipse_396" data-name="Ellipse 396" class="cls-9" cx="8" cy="8" r="8" transform="translate(15.162 46.772) rotate(-3.969)"/>
                <path id="Path_587" data-name="Path 587" class="cls-12" d="M24.2,57.6a3.437,3.437,0,0,1-1-6.8Z"/>
              </g>
              <path id="Path_588" data-name="Path 588" class="cls-12" d="M48.1,52.6l3.7-.3A1.4,1.4,0,0,0,53,50.9h0a1.4,1.4,0,0,0-1.4-1.2l-3.7.3a1.4,1.4,0,0,0-1.2,1.4h0A1.255,1.255,0,0,0,48.1,52.6Z"/>
              <ellipse id="Ellipse_397" data-name="Ellipse 397" class="cls-12" cx="2.7" cy="2.1" rx="2.7" ry="2.1" transform="translate(32.562 50.09) rotate(-3.969)"/>
              <ellipse id="Ellipse_398" data-name="Ellipse 398" class="cls-12" cx="2.7" cy="2.1" rx="2.7" ry="2.1" transform="translate(62.862 47.993) rotate(-3.969)"/>
              <circle id="Ellipse_399" data-name="Ellipse 399" class="cls-8" cx="1.8" cy="1.8" r="1.8" transform="translate(56.98 42.729) rotate(-3.969)"/>
              <circle id="Ellipse_400" data-name="Ellipse 400" class="cls-8" cx="1.8" cy="1.8" r="1.8" transform="translate(39.177 43.926) rotate(-3.969)"/>
              <path id="Path_589" data-name="Path 589" class="cls-13" d="M63.9,38.8a10.713,10.713,0,0,0-3.5-1.4,8.438,8.438,0,0,0-3.5.5"/>
              <path id="Path_590" data-name="Path 590" class="cls-13" d="M54.5,59.6a4.945,4.945,0,0,1-4,2.2c-2.9.2-3.7-1.7-3.7-1.7"/>
              <path id="Path_591" data-name="Path 591" class="cls-13" d="M36,38.7a6.594,6.594,0,0,1,2.7-1.3,4.837,4.837,0,0,1,2.7,0"/>
            </g>
          </g>
        </g>
      </g>
      <g id="Group_2524" data-name="Group 2524">
        <g id="Group_2514" data-name="Group 2514">
          <path id="Path_593" data-name="Path 593" class="cls-14" d="M110.1,123,72.6,110.4a8.53,8.53,0,0,1-5.4-10.9l18.5-55a8.53,8.53,0,0,1,10.9-5.4l37.5,12.6a8.53,8.53,0,0,1,5.4,10.9l-18.5,55A8.53,8.53,0,0,1,110.1,123Z"/>
        </g>
        <g id="Group_2518" data-name="Group 2518">
          <g id="Group_2515" data-name="Group 2515">
            <line id="Line_70" data-name="Line 70" class="cls-15" x2="17.7" y2="6.2" transform="translate(113.8 53.7)"/>
            <line id="Line_71" data-name="Line 71" class="cls-15" x2="17.7" y2="6.1" transform="translate(111.1 61.5)"/>
            <line id="Line_72" data-name="Line 72" class="cls-15" x2="17.7" y2="6.2" transform="translate(108.4 69.2)"/>
          </g>
          <g id="Group_2516" data-name="Group 2516">
            <line id="Line_73" data-name="Line 73" class="cls-16" x2="4.9" y2="18.4" transform="translate(95.5 47.4)"/>
            <line id="Line_74" data-name="Line 74" class="cls-16" x1="15.2" y2="11.4" transform="translate(90.1 50.8)"/>
          </g>
          <g id="Group_2517" data-name="Group 2517">
            <path id="Path_594" data-name="Path 594" class="cls-17" d="M110.2,114.5,76.8,102.9a2.119,2.119,0,0,1-1.3-2.7L85.8,70.7a2.119,2.119,0,0,1,2.7-1.3l16.3,5.7,17.1,6a2.119,2.119,0,0,1,1.3,2.7l-10.3,29.5A2.154,2.154,0,0,1,110.2,114.5Z"/>
            <line id="Line_75" data-name="Line 75" class="cls-15" x2="37.5" y2="13" transform="translate(83.9 75.8)"/>
            <line id="Line_76" data-name="Line 76" class="cls-15" x2="37.5" y2="13.1" transform="translate(81.6 82.3)"/>
            <line id="Line_77" data-name="Line 77" class="cls-15" x2="37.5" y2="13" transform="translate(79.3 88.9)"/>
            <line id="Line_78" data-name="Line 78" class="cls-15" x2="37.4" y2="13.1" transform="translate(77.1 95.4)"/>
            <line id="Line_79" data-name="Line 79" class="cls-17" y1="31.6" x2="11" transform="translate(93.8 76.1)"/>
          </g>
        </g>
        <g id="Group_2523" data-name="Group 2523">
          <path id="Path_595" data-name="Path 595" class="cls-18" d="M125.2,127.8,84.7,108.1A9.764,9.764,0,0,1,80.2,95l28.9-59.3a9.764,9.764,0,0,1,13.1-4.5l40.5,19.7A9.764,9.764,0,0,1,167.2,64l-28.9,59.3A9.79,9.79,0,0,1,125.2,127.8Z"/>
          <g id="Group_2522" data-name="Group 2522">
            <g id="Group_2519" data-name="Group 2519">
              <line id="Line_80" data-name="Line 80" class="cls-19" x2="19.4" y2="9.4" transform="translate(139.4 50.5)"/>
              <line id="Line_81" data-name="Line 81" class="cls-19" x2="19.3" y2="9.4" transform="translate(135.3 58.9)"/>
              <line id="Line_82" data-name="Line 82" class="cls-19" x2="19.3" y2="9.4" transform="translate(131.2 67.4)"/>
            </g>
            <g id="Group_2520" data-name="Group 2520">
              <line id="Line_83" data-name="Line 83" class="cls-20" x2="3.1" y2="21.7" transform="translate(119.5 40.7)"/>
              <line id="Line_84" data-name="Line 84" class="cls-20" x1="18.9" y2="11" transform="translate(111.3 45.9)"/>
            </g>
            <g id="Group_2521" data-name="Group 2521">
              <path id="Path_596" data-name="Path 596" class="cls-21" d="M127.1,119.2,90.6,101.4a2.482,2.482,0,0,1-1.1-3.3l15.7-32.2a2.482,2.482,0,0,1,3.3-1.1l17.8,8.7L145,82.6a2.482,2.482,0,0,1,1.1,3.3l-15.7,32.2A2.482,2.482,0,0,1,127.1,119.2Z"/>
              <line id="Line_85" data-name="Line 85" class="cls-19" x2="40.9" y2="20" transform="translate(102.4 71.5)"/>
              <line id="Line_86" data-name="Line 86" class="cls-19" x2="40.9" y2="19.9" transform="translate(98.9 78.7)"/>
              <line id="Line_87" data-name="Line 87" class="cls-19" x2="40.9" y2="20" transform="translate(95.4 85.8)"/>
              <line id="Line_88" data-name="Line 88" class="cls-19" x2="41" y2="19.9" transform="translate(91.9 93)"/>
              <line id="Line_89" data-name="Line 89" class="cls-21" y1="34.5" x2="16.9" transform="translate(109.3 74.7)"/>
            </g>
          </g>
        </g>
      </g>
    </g>
    <g id="Group_2527" data-name="Group 2527">
      <circle id="Ellipse_401" data-name="Ellipse 401" class="cls-22" cx="15.2" cy="15.2" r="15.2" transform="translate(43.6 98.7)"/>
      <g id="Group_2526" data-name="Group 2526">
        <line id="Line_90" data-name="Line 90" class="cls-23" y2="14" transform="translate(58.8 106.9)"/>
        <line id="Line_91" data-name="Line 91" class="cls-23" x1="14" transform="translate(51.8 113.9)"/>
      </g>
    </g>
  </g>
</svg>
