<svg xmlns="http://www.w3.org/2000/svg" viewBox="0 0 32 32"><defs><style>.cls-1{fill:#3a377a;}.cls-2{fill:none;stroke:#499fde;stroke-miterlimit:10;stroke-width:2.2px;}</style></defs><title>menu_config</title><g id="Layer_9" data-name="Layer 9"><g id="Settings"><path class="cls-1" d="M27.9,15a.79.79,0,0,0-.76-.61,2.64,2.64,0,0,1-1.7-4.63.68.68,0,0,0,.1-.9,12.23,12.23,0,0,0-1.85-1.95.67.67,0,0,0-.91,0,2.74,2.74,0,0,1-3,.6,2.65,2.65,0,0,1-1.56-2.63.66.66,0,0,0-.57-.71A12,12,0,0,0,15,4.1a.67.67,0,0,0-.61.67,2.66,2.66,0,0,1-1.69,2.51,2.74,2.74,0,0,1-2.94-.74.68.68,0,0,0-.9-.1,12.11,12.11,0,0,0-2,1.87.67.67,0,0,0,0,.91,2.62,2.62,0,0,1,.6,3,2.76,2.76,0,0,1-2.63,1.56.65.65,0,0,0-.71.57,12.27,12.27,0,0,0-.07,2.71.8.8,0,0,0,.77.61,2.61,2.61,0,0,1,2.42,1.69,2.65,2.65,0,0,1-.73,2.94.68.68,0,0,0-.1.9,11.78,11.78,0,0,0,1.85,1.95.66.66,0,0,0,.91-.05,2.74,2.74,0,0,1,3-.6,2.65,2.65,0,0,1,1.56,2.63.66.66,0,0,0,.57.71,12.44,12.44,0,0,0,1.37.11,11.4,11.4,0,0,0,1.31,0,.67.67,0,0,0,.61-.67,2.66,2.66,0,0,1,1.69-2.51,2.74,2.74,0,0,1,2.94.74.68.68,0,0,0,.9.1,12.53,12.53,0,0,0,2-1.87.67.67,0,0,0-.05-.91,2.62,2.62,0,0,1-.6-3A2.68,2.68,0,0,1,27,18.22h.15a.66.66,0,0,0,.71-.57A12.27,12.27,0,0,0,27.9,15ZM15.93,20A4,4,0,1,1,20,16.12,4,4,0,0,1,15.93,20Z"/></g><circle class="cls-2" cx="16" cy="16" r="4.49"/></g></svg>