<svg xmlns="http://www.w3.org/2000/svg" viewBox="0 0 32 32"><defs><style>.cls-1{fill:#cad7d8;}.cls-2{fill:#3a377a;}</style></defs><title>menu_codes</title><g id="Layer_9" data-name="Layer 9"><path class="cls-1" d="M28.59,23.05v-15a1.89,1.89,0,0,0-1.88-1.89H5.5A1.89,1.89,0,0,0,3.62,8.07h0v15A1.88,1.88,0,0,0,5.5,24.93H26.71a1.88,1.88,0,0,0,1.88-1.88Z"/><path class="cls-2" d="M8.46,9.51a.82.82,0,0,0-.82.81V20.79a.82.82,0,1,0,1.64,0V10.32A.82.82,0,0,0,8.46,9.51Z"/><path class="cls-2" d="M12.28,18.59a.82.82,0,0,0,.82-.82V10.32a.82.82,0,0,0-1.64,0v7.45A.82.82,0,0,0,12.28,18.59Z"/><path class="cls-2" d="M16.1,18.59a.82.82,0,0,0,.82-.82V10.32a.82.82,0,1,0-1.63,0v7.45A.82.82,0,0,0,16.1,18.59Z"/><path class="cls-2" d="M19.92,18.59a.82.82,0,0,0,.82-.82V10.32a.82.82,0,1,0-1.63,0v7.45a.82.82,0,0,0,.81.82Z"/><path class="cls-2" d="M23.74,9.51a.81.81,0,0,0-.81.82V20.79a.82.82,0,1,0,1.63,0V10.32A.82.82,0,0,0,23.74,9.51Z"/><circle class="cls-2" cx="12.28" cy="20.8" r="0.84"/><circle class="cls-2" cx="16.1" cy="20.8" r="0.84"/><circle class="cls-2" cx="19.92" cy="20.8" r="0.84"/></g></svg>