<svg xmlns="http://www.w3.org/2000/svg" xmlns:xlink="http://www.w3.org/1999/xlink" viewBox="0 0 32 32"><defs><style>.cls-1,.cls-11,.cls-15,.cls-16{fill:none;}.cls-2{clip-path:url(#clip-path);}.cls-3{fill:#130a2d;}.cls-4{fill:#f5f4f9;}.cls-5{fill:#eaac81;}.cls-6{fill:#fff;}.cls-7{fill:#ccc;}.cls-8{fill:#1f193a;}.cls-9{fill:#efba93;}.cls-10{fill:#8c4d22;}.cls-11,.cls-15,.cls-16{stroke:#8c4d22;stroke-linecap:round;}.cls-11,.cls-16{stroke-miterlimit:10;}.cls-11{stroke-width:0.78px;}.cls-12{fill:#efb289;}.cls-13{fill:#ad4732;opacity:0.8;}.cls-14{fill:#491b0d;}.cls-15{stroke-linejoin:round;stroke-width:0.95px;}.cls-16{stroke-width:5px;}</style><clipPath id="clip-path"><rect class="cls-1" width="32" height="32"/></clipPath></defs><title>menu_users</title><g id="Layer_9" data-name="Layer 9"><g class="cls-2"><path class="cls-3" d="M26,55.48l-21.81.06A4.35,4.35,0,0,1-.19,51.21V39a9.57,9.57,0,0,1,9.54-9.54h11.4A9.56,9.56,0,0,1,30.29,39V51.21A4.29,4.29,0,0,1,26,55.48Z"/><path class="cls-4" d="M15.41,54.83l5.88-25.4a48.21,48.21,0,0,0-5.55-.72C13.43,28.57,9,29.81,9,29.81A184.26,184.26,0,0,0,15.41,54.83Z"/><path class="cls-5" d="M10,29.17,9.88,12.25h10.2l.08,19.89c-.08,2.32-2.14,2.42-5.11,2.22A5.55,5.55,0,0,1,10,29.17Z"/><path class="cls-6" d="M10,28.71S9.39,32,14.75,34.28c0,0-1.86-.3-3.65,3.45L8.87,29.45A1.2,1.2,0,0,1,10,28.71Z"/><path class="cls-7" d="M10,28.71l5.44,5.57s-2.52-.3-4.31,3.45L8.87,29.45Z"/><path class="cls-7" d="M20.15,28.83l-4.74,5.44s2.14-.06,3.93,3.7l1.95-8.54Z"/><polygon class="cls-8" points="8.87 29.45 15.41 54.83 8.75 40.81 10.32 37.5 7.55 35.34 8.87 29.45"/><polygon class="cls-8" points="21.29 29.43 15.41 54.83 22.07 40.81 20.51 37.5 23.27 35.34 21.29 29.43"/></g><path class="cls-9" d="M15.73,27.4h-1a6.56,6.56,0,0,1-6.91-6.78L7.94,8c0-4.61,4.93-5.82,6.53-5.81h2c3.42,0,6.18,2.43,6.15,5.37l-.12,12.93C22.48,24.34,20.12,27.41,15.73,27.4Z"/><path class="cls-10" d="M22.09,9.72a17.3,17.3,0,0,1-.36,3.91s.41-.51,1.83,0L22.9,7.45,20.36,4.22A11.5,11.5,0,0,1,22.09,9.72Z"/><path class="cls-11" d="M7,12.25s-3-10,8-10c10,0,7.82,10,7.82,10"/><path class="cls-10" d="M7.92,9.72a17,17,0,0,0,.37,3.91s-.41-.51-1.84,0l.66-6.21L9.65,4.22A11.62,11.62,0,0,0,7.92,9.72Z"/><ellipse class="cls-9" cx="22.85" cy="16.16" rx="2.66" ry="3.22" transform="translate(-0.13 0.19) rotate(-0.48)"/><path class="cls-12" d="M22.6,17.55a1.49,1.49,0,1,0-.06-3Z"/><path class="cls-13" d="M14.29,16.15h1.54a.54.54,0,0,1,.54.54h0a.54.54,0,0,1-.54.54H14.29a.54.54,0,0,1-.54-.54A.53.53,0,0,1,14.29,16.15Z"/><ellipse class="cls-9" cx="7.98" cy="16.16" rx="3.22" ry="2.66" transform="translate(-8.24 24) rotate(-89.52)"/><path class="cls-12" d="M8.23,17.55a1.49,1.49,0,1,1,.06-3Z"/><path class="cls-6" d="M14.91,24.89A3.06,3.06,0,0,0,18,21.83H11.84A3.06,3.06,0,0,0,14.91,24.89Z"/><circle class="cls-14" cx="17.86" cy="14.97" r="0.76"/><path class="cls-15" d="M10.13,12a4.13,4.13,0,0,1,1.47-.4A3.19,3.19,0,0,1,13,12"/><circle class="cls-14" cx="11.9" cy="14.97" r="0.76"/><path class="cls-15" d="M19.7,12a4.06,4.06,0,0,0-1.44-.51,3,3,0,0,0-1.42.25"/><path class="cls-10" d="M14.92,18a4,4,0,0,0-4,4h8A4,4,0,0,0,14.92,18Z"/><path class="cls-16" d="M9.34,6.87s10.59.72,13-3.24"/><path class="cls-10" d="M7.39,5S16.46,8.13,21,4.28c0,0-.3-3-6.59-2.75S7.39,5,7.39,5Z"/></g></svg>