<svg xmlns="http://www.w3.org/2000/svg" viewBox="0 0 32 32"><defs><style>.cls-1{fill:#a0a4c0;}.cls-2{fill:#828699;}.cls-3{fill:#499fde;}.cls-4{fill:#eff9f8;}.cls-5{fill:#d8f5fc;}.cls-6{fill:#235066;}.cls-7{fill:#ec3d15;}.cls-8{fill:#8c1319;}</style></defs><title>menu_flights</title><g id="Layer_9" data-name="Layer 9"><path class="cls-1" d="M19.76,12.06h2a.11.11,0,0,0,.11-.11h0a1.1,1.1,0,0,0-1.1-1.1h-1.4Z"/><path class="cls-2" d="M4.4,12.06h-2A.11.11,0,0,1,2.3,12h0a1.1,1.1,0,0,1,1.1-1.1H4.81Z"/><rect x="3.3" y="18.21" width="4.03" height="3.12" rx="0.81" ry="0.81"/><rect x="17.02" y="18.21" width="4.03" height="3.12" rx="0.81" ry="0.81"/><path class="cls-3" d="M20.05,12.38c-.34-2.75-1.85-4.77-3.73-4.77H8c-1.88,0-3.4,2-3.73,4.77a3.81,3.81,0,0,0-1.81,3.46c0,4.3,4.68,4,4.68,4h10s4.68.32,4.68-4A3.83,3.83,0,0,0,20.05,12.38Z"/><path class="cls-4" d="M5.81,17.14a1.3,1.3,0,1,1,1.29-1.3A1.29,1.29,0,0,1,5.81,17.14Z"/><path class="cls-5" d="M6.27,11.87a5.67,5.67,0,0,0-.73.06C5.92,10.13,6.89,8.8,8,8.8h8.33c1.11,0,2.08,1.33,2.45,3.13C18.65,11.91,6.27,11.87,6.27,11.87Z"/><path class="cls-6" d="M15.39,16.6H8.93a.4.4,0,0,1,0-.79h6.46a.4.4,0,0,1,0,.79Z"/><path class="cls-4" d="M18.51,17.14a1.3,1.3,0,1,1,1.29-1.3A1.3,1.3,0,0,1,18.51,17.14Z"/><path class="cls-2" d="M27,15.21h2.14a.13.13,0,0,0,.12-.12h0a1.18,1.18,0,0,0-1.19-1.18H26.6Z"/><path class="cls-2" d="M10.49,15.21H8.35a.12.12,0,0,1-.12-.12h0a1.18,1.18,0,0,1,1.18-1.18h1.51Z"/><rect x="9.3" y="21.83" width="4.34" height="3.36" rx="0.87" ry="0.87"/><rect x="24.08" y="21.83" width="4.34" height="3.36" rx="0.87" ry="0.87"/><path class="cls-7" d="M27.34,15.55c-.36-3-2-5.13-4-5.13h-9c-2,0-3.65,2.17-4,5.12a4.16,4.16,0,0,0-1.95,3.74c0,4.63,5,4.29,5,4.29H24.25s5.05.34,5.05-4.29A4.14,4.14,0,0,0,27.34,15.55Z"/><path class="cls-4" d="M12,20.67a1.39,1.39,0,1,1,1.4-1.39A1.39,1.39,0,0,1,12,20.67Z"/><path class="cls-5" d="M12.5,15a4.81,4.81,0,0,0-.78.07c.4-2,1.44-3.38,2.64-3.38h9c1.19,0,2.24,1.43,2.64,3.38C25.83,15.05,12.5,15,12.5,15Z"/><path class="cls-8" d="M22.32,20.09h-7a.39.39,0,0,1-.37-.42.4.4,0,0,1,.37-.43h7a.41.41,0,0,1,.37.43A.4.4,0,0,1,22.32,20.09Z"/><path class="cls-4" d="M25.68,20.67a1.39,1.39,0,1,1,1.39-1.39A1.39,1.39,0,0,1,25.68,20.67Z"/></g></svg>