<svg xmlns="http://www.w3.org/2000/svg" viewBox="0 0 32 32"><defs><style>.cls-1{fill:#cad7d8;}.cls-2{fill:#499fde;}.cls-3,.cls-8{fill:none;stroke:#3a377a;stroke-linecap:round;stroke-linejoin:round;}.cls-3{stroke-width:1.45px;}.cls-4,.cls-6{fill:#d8f5fc;}.cls-4{stroke:#fff;stroke-miterlimit:10;stroke-width:0.53px;}.cls-5{fill:#3a377a;}.cls-7{fill:#444493;}.cls-8{stroke-width:2.35px;opacity:0.5;}</style></defs><title>menu_archive</title><g id="Layer_9" data-name="Layer 9"><path class="cls-1" d="M24.19,24.76V6.46c0-1.27-.67-2.31-1.5-2.31H5.76c-.83,0-1.5,1-1.5,2.31h0v18.3c0,1.28.67,2.31,1.5,2.31H22.69c.83,0,1.5-1,1.5-2.31Z"/><rect class="cls-2" x="14.88" y="6.26" width="7.45" height="7.92" rx="0.79" ry="0.79"/><line class="cls-3" x1="20.61" y1="24.15" x2="6.28" y2="24.15"/><line class="cls-3" x1="20.61" y1="20.17" x2="6.28" y2="20.17"/><line class="cls-3" x1="14.22" y1="16.2" x2="6.28" y2="16.2"/><line class="cls-3" x1="12.88" y1="12.23" x2="6.28" y2="12.23"/><line class="cls-3" x1="12.88" y1="8.25" x2="6.28" y2="8.25"/><line class="cls-4" x1="27.71" y1="29.47" x2="23.22" y2="24.97"/><path class="cls-5" d="M27.71,30.53a1,1,0,0,0,.75-.31,1.05,1.05,0,0,0,0-1.5L24,24.22a1.08,1.08,0,0,0-1.51,0,1.07,1.07,0,0,0,0,1.5l4.5,4.5A1.05,1.05,0,0,0,27.71,30.53Z"/><path class="cls-6" d="M20.75,27.24a5.51,5.51,0,1,1,5.51-5.51A5.51,5.51,0,0,1,20.75,27.24Z"/><path class="cls-7" d="M20.75,17.16a4.57,4.57,0,1,1-4.57,4.57,4.58,4.58,0,0,1,4.57-4.57m0-1.88a6.45,6.45,0,1,0,6.45,6.45,6.45,6.45,0,0,0-6.45-6.45Z"/><line class="cls-8" x1="16.36" y1="19.34" x2="21.15" y2="19.34"/><line class="cls-8" x1="16.11" y1="23.95" x2="21.15" y2="23.95"/></g></svg>