<svg xmlns="http://www.w3.org/2000/svg" viewBox="0 0 210 135"><defs><style>.cls-1{fill:#dceaea;}.cls-2{fill:#3a377a;}.cls-3{fill:#ec3d15;}.cls-4{fill:#e73e36;opacity:0.37;}.cls-5{fill:#f4c199;}.cls-6{fill:#499fde;}.cls-7{fill:#6e6aa5;}.cls-8{fill:#1f154a;}.cls-10,.cls-11,.cls-9{fill:none;stroke-linecap:round;stroke-linejoin:round;}.cls-9{stroke:#6e6aa5;stroke-width:15.21px;}.cls-10,.cls-11{stroke:#f4c199;}.cls-10{stroke-width:15.74px;}.cls-11{stroke-width:11.8px;}</style></defs><title>Artboard 29 copy</title><g id="Layer_10" data-name="Layer 10"><path class="cls-1" d="M91.83,72.39V33a5,5,0,0,0-5-4.95H31.17a5,5,0,0,0-5,4.95h0V72.39a5,5,0,0,0,5,5h55.7a5,5,0,0,0,5-5Z"/><path class="cls-2" d="M39,36.82A2.15,2.15,0,0,0,36.8,39V66.47a2.15,2.15,0,0,0,4.3,0V39A2.15,2.15,0,0,0,39,36.82Z"/><path class="cls-2" d="M49,60.67a2.15,2.15,0,0,0,2.15-2.15V39a2.15,2.15,0,0,0-4.3,0V58.52A2.15,2.15,0,0,0,49,60.67Z"/><path class="cls-3" d="M19.09,31.14A2.15,2.15,0,0,0,21.24,29V24.43a1.32,1.32,0,0,1,1.31-1.32h4.57a2.15,2.15,0,0,0,0-4.3H22.55a5.62,5.62,0,0,0-5.61,5.62V29A2.14,2.14,0,0,0,19.09,31.14Z"/><path class="cls-3" d="M27.12,82.32H22.55A1.33,1.33,0,0,1,21.24,81V76.43a2.15,2.15,0,0,0-4.3,0V81a5.62,5.62,0,0,0,5.61,5.62h4.57a2.15,2.15,0,0,0,0-4.3Z"/><path class="cls-3" d="M99.05,74.29a2.14,2.14,0,0,0-2.15,2.14V81a1.32,1.32,0,0,1-1.32,1.32H91a2.15,2.15,0,1,0,0,4.3h4.56A5.62,5.62,0,0,0,101.2,81h0V76.43A2.14,2.14,0,0,0,99.05,74.29Z"/><path class="cls-3" d="M95.58,18.81H91a2.15,2.15,0,1,0,0,4.3h4.56a1.33,1.33,0,0,1,1.32,1.32V29a2.15,2.15,0,0,0,4.3,0V24.43A5.62,5.62,0,0,0,95.58,18.81Z"/><path class="cls-2" d="M59,60.67a2.15,2.15,0,0,0,2.15-2.15V39a2.15,2.15,0,0,0-4.3,0V58.52A2.15,2.15,0,0,0,59,60.67Z"/><path class="cls-2" d="M69.06,60.67a2.15,2.15,0,0,0,2.15-2.15V39a2.15,2.15,0,1,0-4.3,0V58.52a2.15,2.15,0,0,0,2.15,2.15Z"/><path class="cls-2" d="M79.09,36.82A2.16,2.16,0,0,0,76.94,39v27.5a2.15,2.15,0,1,0,4.3,0V39A2.15,2.15,0,0,0,79.09,36.82Z"/><circle class="cls-2" cx="48.98" cy="66.5" r="2.22"/><circle class="cls-2" cx="59.02" cy="66.5" r="2.22"/><circle class="cls-2" cx="69.06" cy="66.5" r="2.22"/><polygon class="cls-4" points="128.26 57.48 46.76 63.56 46.76 43.48 128.26 47.52 128.26 57.48"/><circle class="cls-5" cx="172.34" cy="93.36" r="21.61"/><path class="cls-6" d="M102.9,40.81s-1.35,14.39,13.67,24.81c0,0,61.05,7.29,61.51-12.32C178.35,41.56,143.55,30.69,102.9,40.81Z"/><path class="cls-7" d="M159.5,111.5a3.37,3.37,0,0,1-1.32,4.32l-2.81,1.68,31-6.38s-8-16.62-10.81-24.17c-5.36-14.38-11.36-17.43-3.62-25.1,0,0-6.55-6.16-19-3.27s-13.69,9.74-13.69,9.74Z"/><path class="cls-8" d="M128.57,66.6s6.86,4.36,9,12a1.92,1.92,0,0,0,2.86,1.07,9.91,9.91,0,0,0,4.27-5.21c1.8-5.08-3-7.47-3-7.47Z"/><line class="cls-9" x1="179.05" y1="112.92" x2="160.9" y2="122.77"/><line class="cls-10" x1="164.93" y1="73.06" x2="171.88" y2="77.49"/><line class="cls-10" x1="160.85" y1="109.08" x2="157.07" y2="101.22"/><line class="cls-11" x1="147.84" y1="93.88" x2="145.43" y2="88.81"/></g></svg>