<svg xmlns="http://www.w3.org/2000/svg" viewBox="0 0 210 135"><defs><style>.cls-1{fill:#499fde;}.cls-11,.cls-15,.cls-16,.cls-17,.cls-18,.cls-19,.cls-2,.cls-21,.cls-7{fill:none;}.cls-2{stroke:#417ba3;stroke-width:3.94px;}.cls-2,.cls-7{stroke-linecap:round;stroke-linejoin:round;}.cls-3{fill:#e8cf69;}.cls-4{fill:#eb7826;}.cls-5{fill:#f7e07f;}.cls-6{fill:#fff;stroke:#1d1147;stroke-width:0.86px;}.cls-11,.cls-15,.cls-16,.cls-17,.cls-18,.cls-19,.cls-21,.cls-6,.cls-8{stroke-miterlimit:10;}.cls-11,.cls-15,.cls-16,.cls-17,.cls-18,.cls-19,.cls-7{stroke:#362360;}.cls-7{stroke-width:1.86px;}.cls-8{fill:#291c4c;stroke:#ec3d15;stroke-width:2.63px;}.cls-9{fill:#453387;}.cls-10{fill:#ec3d15;}.cls-11{stroke-width:1.62px;}.cls-12{fill:#009342;}.cls-13{fill:#00a551;}.cls-14{fill:#00bf56;}.cls-15{stroke-width:2.83px;}.cls-16{stroke-width:1.89px;}.cls-17{stroke-width:1.08px;}.cls-18{stroke-width:2.71px;}.cls-19{stroke-width:1.55px;}.cls-20{fill:#362360;}.cls-21{stroke:#f6f6f6;stroke-width:2.58px;}</style></defs><title>Artboard 29</title><g id="Layer_10" data-name="Layer 10"><path class="cls-1" d="M105.25,7.44a3,3,0,0,1,2.46.6A7.15,7.15,0,0,0,112,9.51c3.19,0,4.71-2.43,8.2-2.43a10.46,10.46,0,0,1,6.23,2.43V22.42s-4-1.82-6.84-1.82-3.6,1.82-7.31,1.82-4.93-1.81-4.93-1.81v8.83s-.29,2-2,2-1.84-2.22-1.84-2.22V9.32A2,2,0,0,1,105.25,7.44Z"/><line class="cls-2" x1="105.5" y1="8.43" x2="105.5" y2="30.08"/><polygon class="cls-3" points="161.14 109.63 49.11 109.63 49.11 62.21 68.69 44.6 145.25 44.6 161.14 62.04 161.14 109.63"/><rect class="cls-3" x="49.11" y="62.21" width="36.94" height="46.91"/><polygon class="cls-4" points="149.1 40.93 105.5 40.93 105.5 40.93 61.9 40.93 43.32 63.78 167.68 63.78 149.1 40.93"/><polygon class="cls-5" points="79.58 56.92 79.58 109.12 129.16 109.12 129.16 55.13 105.47 31.41 79.58 56.92"/><circle class="cls-6" cx="105.04" cy="66.19" r="7.25"/><polyline class="cls-7" points="102.53 69.39 105.39 66.53 105.39 62.27"/><rect class="cls-1" x="133.4" y="80.43" width="6.33" height="6.33"/><rect class="cls-1" x="148.45" y="80.43" width="6.33" height="6.33"/><rect class="cls-1" x="133.4" y="93.2" width="6.33" height="6.33"/><rect class="cls-1" x="148.45" y="93.2" width="6.33" height="6.33"/><rect class="cls-1" x="54.48" y="80.43" width="6.33" height="6.33"/><rect class="cls-1" x="69.52" y="80.43" width="6.33" height="6.33"/><rect class="cls-1" x="54.48" y="93.2" width="6.33" height="6.33"/><rect class="cls-1" x="69.52" y="93.2" width="6.33" height="6.33"/><path class="cls-8" d="M97.51,110.94h15.15V92.83s-.09-6.4-7.62-6.4-7.53,6.47-7.53,6.47Z"/><rect class="cls-9" x="46.23" y="109.18" width="119.95" height="3.45"/><path class="cls-10" d="M101.65,30.72,75.13,56.15a2.42,2.42,0,0,0,1.68,4.17h0a2.43,2.43,0,0,0,1.67-.68l27-25.88,27,25.87a2.46,2.46,0,0,0,1.7.68h0a2.42,2.42,0,0,0,1.65-4.17L109.35,30.72a5.56,5.56,0,0,0-4-1.55h0A5.51,5.51,0,0,0,101.65,30.72Z"/><path class="cls-11" d="M16.16,90.07h0A7.93,7.93,0,0,0,24.09,98H35.75"/><circle class="cls-12" cx="16.74" cy="86.84" r="7.07"/><circle class="cls-13" cx="35.75" cy="79.3" r="15.28"/><path class="cls-11" d="M49.61,95.89h0A6.66,6.66,0,0,1,43,102.55h-7.2"/><circle class="cls-14" cx="51.03" cy="91.12" r="8.21"/><line class="cls-15" x1="35.75" y1="79.3" x2="35.75" y2="114.5"/><line class="cls-11" x1="35.75" y1="88.38" x2="30.28" y2="82.91"/><line class="cls-11" x1="35.75" y1="87.51" x2="39.79" y2="83.48"/><circle class="cls-13" cx="169.75" cy="90.34" r="12.13"/><line class="cls-16" x1="169.44" y1="88.57" x2="169.44" y2="112.44"/><line class="cls-17" x1="168.92" y1="99.6" x2="165.26" y2="95.93"/><line class="cls-17" x1="169.44" y1="93.94" x2="173.93" y2="89.45"/><path class="cls-14" d="M188.81,98.92c-19.38,0-10.73-40.51,0-40.51S208.2,98.92,188.81,98.92Z"/><line class="cls-18" x1="188.37" y1="79.02" x2="188.37" y2="113.23"/><line class="cls-19" x1="187.63" y1="94.82" x2="182.38" y2="89.57"/><line class="cls-19" x1="188.37" y1="86.71" x2="194.8" y2="80.28"/><polygon class="cls-20" points="200.33 115.06 20.78 115.06 20.94 112.25 200.33 112.25 200.33 115.06"/><circle class="cls-10" cx="104.44" cy="119.05" r="15"/><line class="cls-21" x1="104.44" y1="112.16" x2="104.44" y2="125.94"/><line class="cls-21" x1="111.33" y1="119.05" x2="97.55" y2="119.05"/></g></svg>