<svg xmlns="http://www.w3.org/2000/svg" xmlns:xlink="http://www.w3.org/1999/xlink" viewBox="0 0 210 135"><defs><style>.cls-1,.cls-10,.cls-11,.cls-16,.cls-18,.cls-19,.cls-22,.cls-23,.cls-26,.cls-4,.cls-6,.cls-7{fill:none;}.cls-2{clip-path:url(#clip-path);}.cls-3{fill:#5f6468;}.cls-4{stroke:#f4c199;stroke-width:10.2px;}.cls-10,.cls-11,.cls-16,.cls-18,.cls-19,.cls-20,.cls-22,.cls-23,.cls-24,.cls-4,.cls-6,.cls-7{stroke-linecap:round;}.cls-10,.cls-11,.cls-16,.cls-4,.cls-6,.cls-7{stroke-linejoin:round;}.cls-5{fill:#499fde;}.cls-6{stroke:#f2b186;stroke-width:13.08px;}.cls-7{stroke:#7a8084;stroke-width:8.35px;}.cls-8{fill:#8c4d22;}.cls-9{fill:#f4c199;}.cls-10,.cls-11,.cls-16{stroke:#8c4d22;}.cls-10{stroke-width:16.77px;}.cls-11{stroke-width:18.29px;}.cls-12{fill:#efb289;}.cls-13{fill:#ad4732;}.cls-13,.cls-14{opacity:0.5;}.cls-14{fill:#e8754d;}.cls-15{fill:#491b0d;}.cls-16{stroke-width:1.76px;}.cls-17{fill:#cad7d8;}.cls-18,.cls-19,.cls-20,.cls-22,.cls-23,.cls-24{stroke:#00a551;}.cls-18,.cls-19,.cls-20,.cls-22,.cls-23,.cls-24,.cls-26{stroke-miterlimit:10;}.cls-18,.cls-20{stroke-width:1.54px;}.cls-19{stroke-width:2.82px;}.cls-20,.cls-24{fill:#fff;}.cls-21{fill:#dceaea;}.cls-22,.cls-24{stroke-width:1.77px;}.cls-23{stroke-width:3.24px;}.cls-25{fill:#ec3d15;}.cls-26{stroke:#f6f6f6;stroke-width:2.62px;}</style><clipPath id="clip-path"><path class="cls-1" d="M147.17,68.21c0,29.14-19.7,49.74-19.7,49.74H27.63S-7.51,5.62,78.29,1.84C136.36-.72,147.17,39.06,147.17,68.21Z"/></clipPath></defs><title>Artboard 29 copy 4</title><g id="Layer_10" data-name="Layer 10"><g class="cls-2"><path class="cls-3" d="M64.05,148.55l27.28-2.37A17.3,17.3,0,0,0,107,127.49L98.63,88.11C95.66,77.49,86.47,71.38,77,72.2L64.23,73.31c-9.44.82-16,8.18-17.09,18.19l-4.2,39.29C43.76,140.25,54.6,149.37,64.05,148.55Z"/><polyline class="cls-4" points="42.15 108.49 38.95 121.89 39.46 142.73"/><path class="cls-5" d="M53.29,80.94a7.16,7.16,0,0,0-9,3.36L32.86,109.77l14.82,6.31,9.44-26.31A7.18,7.18,0,0,0,53.29,80.94Z"/><polyline class="cls-4" points="105.81 104.08 110.83 116.9 113.2 137.61"/><path class="cls-5" d="M91,78.32a7.17,7.17,0,0,1,9.39,2.09l14.83,23.65-13.8,8.29L88.4,87.6A7.19,7.19,0,0,1,91,78.32Z"/><path class="cls-5" d="M92.7,137.38l-33.13,2c-4.43.38-7.52-2.71-7.55-7.11l-.2-40c.11-.59.15-12.21,8.39-12.79l18.86-1a12.11,12.11,0,0,1,13.1,11L98.58,129A6.7,6.7,0,0,1,92.7,137.38Z"/><line class="cls-6" x1="71.73" y1="69.32" x2="72.59" y2="81.59"/><path class="cls-7" d="M86,79.3a50.37,50.37,0,0,0,10,30.06"/><path class="cls-7" d="M58.75,81.19A50.32,50.32,0,0,1,53,112.34"/><circle class="cls-8" cx="60.81" cy="38.09" r="26.18"/><circle class="cls-8" cx="74.8" cy="34.27" r="27.74"/><ellipse class="cls-9" cx="71.18" cy="47.28" rx="29.96" ry="30.01" transform="translate(-3.1 5.04) rotate(-3.97)"/><path class="cls-10" d="M49.77,31.59s-2.06,4.32-9,9.89"/><path class="cls-11" d="M91,26.17S95.52,28.81,96.37,37"/><path class="cls-10" d="M56.08,21.25s9,8.43,29.88,5.27"/><path class="cls-10" d="M73.72,18.69s9.88,3.73,19.75,1.1"/><ellipse class="cls-9" cx="97.43" cy="52.27" rx="7.97" ry="7.98" transform="translate(-3.38 6.87) rotate(-3.97)"/><path class="cls-12" d="M97.39,55.69a3.42,3.42,0,0,0,.09-6.84Z"/><ellipse class="cls-9" cx="44.19" cy="55.96" rx="7.97" ry="7.98" transform="translate(-3.77 3.19) rotate(-3.97)"/><path class="cls-12" d="M44.71,59.34a3.41,3.41,0,0,1-1-6.75Z"/><rect class="cls-13" x="67.2" y="51.6" width="6.23" height="2.56" rx="1.28" ry="1.28" transform="translate(145.29 98.91) rotate(174.6)"/><ellipse class="cls-14" cx="55.87" cy="53.71" rx="2.71" ry="2.14" transform="translate(-3.58 4) rotate(-3.97)"/><ellipse class="cls-14" cx="86.22" cy="51.61" rx="2.71" ry="2.14" transform="translate(-3.37 6.09) rotate(-3.97)"/><circle class="cls-15" cx="79.4" cy="46.12" r="1.81" transform="translate(-3 5.61) rotate(-3.97)"/><circle class="cls-15" cx="61.55" cy="47.36" r="1.81" transform="matrix(1, -0.07, 0.07, 1, -3.13, 4.37)"/><path class="cls-16" d="M84.39,40.54a10,10,0,0,0-3.45-1.39,7.66,7.66,0,0,0-3.5.5"/><path class="cls-16" d="M75,61.33a4.89,4.89,0,0,1-4,2.21c-2.86.2-3.67-1.69-3.67-1.69"/><path class="cls-16" d="M56.53,40.38a6.88,6.88,0,0,1,2.69-1.28,5.11,5.11,0,0,1,2.75,0"/></g><rect class="cls-17" x="95.45" y="45.09" width="56.84" height="75.32" rx="8.64" ry="8.64" transform="translate(32.87 -35.19) rotate(18.6)"/><line class="cls-18" x1="134.27" y1="55.47" x2="151.95" y2="61.61"/><line class="cls-18" x1="131.59" y1="63.21" x2="149.27" y2="69.35"/><line class="cls-18" x1="128.9" y1="70.95" x2="146.58" y2="77.09"/><line class="cls-19" x1="116.04" y1="49.12" x2="120.89" y2="67.51"/><line class="cls-19" x1="125.82" y1="52.52" x2="110.6" y2="63.93"/><path class="cls-20" d="M130.67,116.27,97.23,104.62a2.14,2.14,0,0,1-1.32-2.73L106.18,72.4a2.14,2.14,0,0,1,2.73-1.32l16.29,5.67,17.15,6a2.14,2.14,0,0,1,1.32,2.73L133.4,114.94A2.16,2.16,0,0,1,130.67,116.27Z"/><line class="cls-18" x1="104.4" y1="77.5" x2="141.88" y2="90.55"/><line class="cls-18" x1="102.12" y1="84.06" x2="139.59" y2="97.11"/><line class="cls-18" x1="99.84" y1="90.61" x2="137.31" y2="103.66"/><line class="cls-18" x1="97.55" y1="97.17" x2="135.03" y2="110.22"/><line class="cls-20" x1="114.3" y1="109.43" x2="125.3" y2="77.86"/><rect class="cls-21" x="111.95" y="38.32" width="64.64" height="85.65" rx="9.83" ry="9.83" transform="translate(50.08 -54.96) rotate(25.96)"/><line class="cls-22" x1="159.95" y1="52.17" x2="179.26" y2="61.58"/><line class="cls-22" x1="155.83" y1="60.63" x2="175.14" y2="70.03"/><line class="cls-22" x1="151.71" y1="69.08" x2="171.03" y2="78.49"/><line class="cls-23" x1="140.04" y1="42.46" x2="143.06" y2="64.08"/><line class="cls-23" x1="150.71" y1="47.67" x2="131.81" y2="58.59"/><path class="cls-24" d="M147.56,121l-36.51-17.81a2.46,2.46,0,0,1-1.14-3.29l15.72-32.22a2.46,2.46,0,0,1,3.29-1.13l17.79,8.68,18.73,9.14a2.46,2.46,0,0,1,1.13,3.29l-15.72,32.21A2.46,2.46,0,0,1,147.56,121Z"/><line class="cls-22" x1="122.91" y1="73.22" x2="163.84" y2="93.19"/><line class="cls-22" x1="119.42" y1="80.38" x2="160.34" y2="100.35"/><line class="cls-22" x1="115.92" y1="87.54" x2="156.85" y2="107.51"/><line class="cls-22" x1="112.43" y1="94.7" x2="153.36" y2="114.67"/><line class="cls-24" x1="129.85" y1="110.95" x2="146.67" y2="76.46"/><circle class="cls-25" cx="79.31" cy="115.64" r="15.22"/><line class="cls-26" x1="79.31" y1="108.65" x2="79.31" y2="122.64"/><line class="cls-26" x1="86.3" y1="115.64" x2="72.31" y2="115.64"/></g></svg>