<svg xmlns="http://www.w3.org/2000/svg" viewBox="0 0 400 767.73"><defs><style>.cls-1{isolation:isolate;}.cls-2{fill:#684eaf;}.cls-3{fill:#492787;}.cls-25,.cls-4{fill:#35205b;mix-blend-mode:multiply;}.cls-4{opacity:0.15;}.cls-5{fill:#7652ce;}.cls-47,.cls-6{opacity:0.5;}.cls-7{fill:#3a2168;opacity:0.7;}.cls-8{opacity:0.8;}.cls-12,.cls-13,.cls-14,.cls-15,.cls-16,.cls-17,.cls-18,.cls-19,.cls-20,.cls-29,.cls-32,.cls-36,.cls-37,.cls-45,.cls-50,.cls-53,.cls-54,.cls-55,.cls-58,.cls-61,.cls-62,.cls-63,.cls-65,.cls-66,.cls-68,.cls-70,.cls-71,.cls-73,.cls-74,.cls-75,.cls-78,.cls-79,.cls-80,.cls-81,.cls-9{fill:none;}.cls-12,.cls-13,.cls-14,.cls-15,.cls-16,.cls-17,.cls-18,.cls-19,.cls-20,.cls-9{stroke:#362360;}.cls-12,.cls-13,.cls-14,.cls-15,.cls-16,.cls-17,.cls-18,.cls-19,.cls-20,.cls-24,.cls-45,.cls-70,.cls-9{stroke-miterlimit:10;}.cls-9{stroke-width:1.22px;}.cls-10{fill:#5c398e;}.cls-11{fill:#63409b;}.cls-12{stroke-width:2.14px;}.cls-13{stroke-width:1.38px;}.cls-14{stroke-width:2.41px;}.cls-15{stroke-width:1.13px;}.cls-16{stroke-width:0.65px;}.cls-17{stroke-width:1.48px;}.cls-18{stroke-width:0.85px;}.cls-19{stroke-width:1.08px;}.cls-20{stroke-width:0.62px;}.cls-21{fill:#362360;}.cls-22{fill:#311163;}.cls-23{fill:#534596;}.cls-24,.cls-30{fill:#d8f5fc;}.cls-24{stroke:#311163;stroke-width:3px;}.cls-25{opacity:0.45;}.cls-26{fill:#2d2a21;}.cls-27{fill:#cc3232;}.cls-28{fill:#e73e36;}.cls-29{stroke:#d33737;stroke-width:0.71px;}.cls-29,.cls-32,.cls-36,.cls-37,.cls-45,.cls-50,.cls-53,.cls-54,.cls-55,.cls-58,.cls-61,.cls-62,.cls-63,.cls-65,.cls-66,.cls-68,.cls-71,.cls-73,.cls-74,.cls-75,.cls-78,.cls-79,.cls-80,.cls-81{stroke-linecap:round;}.cls-29,.cls-32,.cls-36,.cls-37,.cls-50,.cls-53,.cls-54,.cls-55,.cls-58,.cls-61,.cls-62,.cls-63,.cls-65,.cls-66,.cls-68,.cls-71,.cls-73,.cls-74,.cls-75,.cls-78,.cls-79,.cls-80,.cls-81{stroke-linejoin:round;}.cls-31{fill:#e3fbff;}.cls-32{stroke:#637077;stroke-width:0.59px;}.cls-33{fill:#a0a4c0;}.cls-34{fill:#eff9f8;}.cls-35{fill:#eb7826;}.cls-36{stroke:#8c1319;stroke-width:1.8px;}.cls-37{stroke:#1f193a;stroke-width:28.44px;}.cls-38{fill:#130a2d;}.cls-39{fill:#f5f4f9;}.cls-40{fill:#eaac81;}.cls-41{fill:#fff;}.cls-42{fill:#212466;}.cls-43{fill:#1f193a;}.cls-44{fill:#efba93;}.cls-45,.cls-50,.cls-58{stroke:#8c4d22;}.cls-45{stroke-width:4.27px;}.cls-46{fill:#8c4d22;}.cls-47{fill:#ad4732;}.cls-48{fill:#efb289;}.cls-49{fill:#491b0d;}.cls-50{stroke-width:1.26px;}.cls-51{fill:#e0d4e0;}.cls-52{fill:#291c4c;}.cls-53,.cls-54,.cls-65,.cls-73{stroke:#f4c199;}.cls-53{stroke-width:18.01px;}.cls-54{stroke-width:21.07px;}.cls-55{stroke:#221d42;stroke-width:28.09px;}.cls-56{fill:#221d42;}.cls-57{fill:#3a377a;}.cls-58{stroke-width:2.45px;}.cls-59{fill:#259356;}.cls-60{fill:#e03838;}.cls-61{stroke:#fff;stroke-width:2px;stroke-dasharray:5;}.cls-62{stroke:#26184c;stroke-width:1.19px;}.cls-63{stroke:#ff4612;stroke-width:1.58px;}.cls-64{fill:#f4a27d;}.cls-65{stroke-width:13.62px;}.cls-66{stroke:#f4a27d;stroke-width:16.12px;}.cls-67{fill:#499fde;}.cls-68{stroke:#e29469;stroke-width:20.67px;}.cls-69{fill:#ab3f3f;}.cls-70,.cls-71{stroke:#3a377a;}.cls-70{stroke-width:7px;}.cls-71{stroke-width:8.69px;}.cls-72{fill:#f2af81;}.cls-73{stroke-width:14.1px;}.cls-74{stroke:#f2af81;stroke-width:16.69px;}.cls-75{stroke:#e2a27f;stroke-width:21.4px;}.cls-76{fill:#e83d21;}.cls-77{fill:#ffc74a;}.cls-78,.cls-79,.cls-80,.cls-81{stroke:#ffc74a;}.cls-78{stroke-width:15px;}.cls-79{stroke-width:9px;}.cls-80{stroke-width:14px;}.cls-81{stroke-width:8px;}</style></defs><title>OnboardingIllustrations4_2</title><g class="cls-1"><g id="Layer_8" data-name="Layer 8"><rect class="cls-2" x="-15.09" y="373.25" width="417.09" height="396.87"/><path class="cls-3" d="M-14-15.35V760H403.13V-15.35ZM268,260.83h-4V422.38h4v8.42H20.83v-8.42h3.92V260.83H20.83v-8.46H268ZM395.38,463H317.06V314.74h78.32Z"/><rect class="cls-2" x="-15.09" y="462.75" width="417.09" height="307.38"/><path class="cls-4" d="M252.6,464.41c0,3.34-5.4,4.63-87.29,4.63-78.84,0-87.15-4.12-87.1-7.46s33-5.51,87.3-4.63S252.66,461.07,252.6,464.41Z"/><rect class="cls-5" x="24.75" y="256.67" width="239.28" height="137.43"/><rect class="cls-5" x="317.07" y="314.62" width="79.32" height="79.48"/><g class="cls-6"><rect class="cls-7" x="59.41" y="291.79" width="47.37" height="100.31" transform="translate(166.18 683.9) rotate(-180)"/><rect class="cls-7" x="15.09" y="341.95" width="44.32" height="50.16" transform="translate(74.5 734.06) rotate(-180)"/><rect class="cls-7" x="187.69" y="357.4" width="34.71" height="34.71"/><rect class="cls-7" x="103.47" y="318.08" width="84.21" height="74.03" transform="translate(291.16 710.18) rotate(-180)"/><rect class="cls-7" x="349.54" y="332.75" width="41.84" height="59.36"/><rect class="cls-7" x="391.39" y="318.08" width="11.59" height="74.03" transform="translate(794.36 710.18) rotate(-180)"/><rect class="cls-7" x="222.4" y="368.72" width="105.83" height="23.39" transform="translate(550.62 760.83) rotate(-180)"/><rect class="cls-7" x="328.23" y="348.21" width="21.32" height="43.89" transform="translate(677.77 740.32) rotate(-180)"/></g><g class="cls-8"><path class="cls-9" d="M379.6,373.72h0a6,6,0,0,1-6,6h-8.83"/><circle class="cls-10" cx="379.16" cy="371.27" r="5.35"/><circle class="cls-10" cx="364.76" cy="365.56" r="11.57"/><path class="cls-9" d="M354.27,378.12h0a5,5,0,0,0,5,5.05h5.45"/><circle class="cls-11" cx="353.19" cy="374.51" r="6.22"/><line class="cls-12" x1="364.76" y1="365.56" x2="364.76" y2="392.21"/><line class="cls-9" x1="364.76" y1="372.44" x2="368.91" y2="368.29"/><line class="cls-9" x1="364.76" y1="371.78" x2="361.71" y2="368.72"/></g><g class="cls-8"><path class="cls-13" d="M99.77,370.39h0A6.75,6.75,0,0,1,93,377.14H83.09"/><circle class="cls-10" cx="99.28" cy="367.64" r="6.02"/><circle class="cls-10" cx="83.09" cy="361.22" r="13.01"/><path class="cls-13" d="M71.3,375.34h0A5.67,5.67,0,0,0,77,381h6.12"/><circle class="cls-11" cx="70.09" cy="371.28" r="6.99"/><line class="cls-14" x1="83.09" y1="361.22" x2="83.09" y2="391.18"/><line class="cls-13" x1="83.09" y1="368.95" x2="87.75" y2="364.29"/><line class="cls-13" x1="83.09" y1="368.21" x2="79.66" y2="364.77"/></g><circle class="cls-10" cx="171.75" cy="379.79" r="7.26"/><line class="cls-15" x1="171.93" y1="378.73" x2="171.93" y2="393.03"/><line class="cls-16" x1="172.24" y1="385.33" x2="174.43" y2="383.14"/><line class="cls-16" x1="171.93" y1="381.94" x2="169.24" y2="379.26"/><path class="cls-10" d="M40.29,385c10.6,0,5.87-22.15,0-22.15S29.69,385,40.29,385Z"/><line class="cls-17" x1="40.53" y1="374.14" x2="40.53" y2="392.84"/><line class="cls-18" x1="40.94" y1="382.78" x2="43.81" y2="379.91"/><line class="cls-18" x1="40.53" y1="378.34" x2="37.02" y2="374.83"/><path class="cls-10" d="M338.63,387.55c7.74,0,4.28-16.2,0-16.2S330.88,387.55,338.63,387.55Z"/><line class="cls-19" x1="338.8" y1="379.59" x2="338.8" y2="393.26"/><line class="cls-20" x1="339.1" y1="385.9" x2="341.2" y2="383.81"/><line class="cls-20" x1="338.8" y1="382.67" x2="336.23" y2="380.1"/><polygon class="cls-21" points="24.75 394.66 400.34 394.66 400 391.88 24.75 391.88 24.75 394.66"/><rect class="cls-22" x="20.83" y="497.63" width="259.03" height="112.32"/><rect class="cls-23" x="20.83" y="422.46" width="247.19" height="8.42"/><circle class="cls-24" cx="263.21" cy="332.75" r="44.54"/><ellipse class="cls-25" cx="263.21" cy="352.9" rx="33.69" ry="4.98"/><rect class="cls-26" x="233.03" y="345.09" width="9.14" height="9.14" rx="2.51" ry="2.51"/><rect class="cls-26" x="283.84" y="345.09" width="9.14" height="9.14" rx="2.51" ry="2.51"/><rect class="cls-27" x="232.09" y="324.98" width="61.58" height="24.98" rx="6.24" ry="6.24"/><rect class="cls-28" x="239.27" y="320.71" width="47.04" height="4.28"/><path class="cls-27" d="M275.62,305.52h-25.3a8.25,8.25,0,0,0-7.82,5.61l-3.23,9.58h47l-2.79-9.31A8.24,8.24,0,0,0,275.62,305.52Z"/><path class="cls-28" d="M239.27,325l7.35,10.76a5.85,5.85,0,0,0,4.81,2.53h22.68a5.82,5.82,0,0,0,4.79-2.52L286.31,325Z"/><path class="cls-29" d="M239.27,325l7.35,10.76a5.85,5.85,0,0,0,4.81,2.53h22.68a5.82,5.82,0,0,0,4.79-2.52L286.31,325"/><path class="cls-30" d="M284.85,320.71l-2.93-9.12a4,4,0,0,0-3.84-2.79H247.65a4,4,0,0,0-3.84,2.82L241,320.71Z"/><path class="cls-31" d="M257.22,308.8h-9.57a4,4,0,0,0-3.84,2.82L241,320.71H268Z"/><path class="cls-32" d="M284.85,320.71l-2.93-9.12a4,4,0,0,0-3.84-2.79H247.65a4,4,0,0,0-3.84,2.82L241,320.71Z"/><path class="cls-33" d="M239.27,320.71h-5.08a.29.29,0,0,1-.29-.28h0a2.82,2.82,0,0,1,2.82-2.82h3.59Z"/><path class="cls-33" d="M286.5,320.71h5.08a.29.29,0,0,0,.29-.28h0a2.82,2.82,0,0,0-2.82-2.82h-3.59Z"/><circle class="cls-34" cx="239.11" cy="334.74" r="4.24"/><circle class="cls-34" cx="287.63" cy="334.74" r="4.24"/><path class="cls-35" d="M281.43,344.66v2.53h5.35a1.88,1.88,0,0,0,1.88-1.88h0a.64.64,0,0,0-.64-.65Z"/><path class="cls-35" d="M244.77,344.66v2.53h-5.35a1.89,1.89,0,0,1-1.89-1.88h0a.65.65,0,0,1,.64-.65Z"/><line class="cls-36" x1="248.8" y1="346.4" x2="277.1" y2="346.4"/><polyline class="cls-37" points="132.97 380.92 144.62 439.23 216.44 445.15"/><path class="cls-38" d="M90.78,360.73h32.78A27.45,27.45,0,0,1,151,388.18v91.07a12.47,12.47,0,0,1-12.47,12.47H75.79a12.47,12.47,0,0,1-12.47-12.47V388.18a27.45,27.45,0,0,1,27.45-27.45Z" transform="translate(5.05 -1.24) rotate(0.68)"/><path class="cls-39" d="M126.39,433.79s2.82-38.9,4.25-47c1.48-8.46,1.79-21.64,1.79-21.64a62.37,62.37,0,0,0-14.74-2.78c-6.64-.42-18.92-1.3-18.92-1.3S115,398.89,126.39,433.79Z"/><path class="cls-40" d="M100.39,358.27l4.94-48.43,29.17,3.07-5.81,56.92c-.93,6.62-6.35,5.92-14.79,4.45C103.65,372.49,99.91,362.89,100.39,358.27Z"/><path class="cls-41" d="M100.42,357.19s1.39,9.48,21.65,17.89c0,0-6.47-1-12.48,9.74l-11.3-23.95A17.8,17.8,0,0,1,100.42,357.19Z"/><path class="cls-41" d="M131.19,382.11s.52-6.55-8.37-6.79c0,0,3.59-3.76,4.78-6.42a17.88,17.88,0,0,0,1.63-6l3.2,2.25S132.48,366.24,131.19,382.11Z"/><path class="cls-42" d="M115.55,377.49l4.52,6.05a3.35,3.35,0,0,0,4.89-.75l1.89-4.41s1.53-3.54-4.78-3.3C117.58,375.25,115.55,377.49,115.55,377.49Z"/><path class="cls-42" d="M121.23,418.64l-.68-34.6s-.4-3.42,2.14-3.18,1.56,3.11,1.56,3.11l5,34s-.86,5.58-1.57,9.53c-.54,3.08-1.25,6.33-1.25,6.33a47.31,47.31,0,0,1-2.7-6.94C122.85,424.34,121.23,418.64,121.23,418.64Z"/><polygon class="cls-43" points="98.29 360.87 126.39 433.79 100.5 393.44 105.01 383.92 97.05 377.72 98.29 360.87"/><polygon class="cls-43" points="132.83 365.71 126.39 433.79 138.56 387.86 134.68 380.84 137.3 375.11 132.83 365.71"/><path class="cls-44" d="M120.62,280.5h14.53a16.15,16.15,0,0,1,16.15,16.15v45.08a15.2,15.2,0,0,1-15.2,15.2h-2.65A20.41,20.41,0,0,1,113,336.52V288.07A7.58,7.58,0,0,1,120.62,280.5Z" transform="translate(59.8 -18.64) rotate(10.42)"/><path class="cls-45" d="M158.37,281.22s0,5.47-5.78,3.6c-3.71-1.2-5.82-2.37-10.08-3.68-16.92-5.25-33.22-1.6-34.57,15.88"/><circle class="cls-46" cx="115.61" cy="294.27" r="9.25"/><path class="cls-46" d="M115.32,303.56,112.66,320s-1.27-11.15-9.19-9.56l3-17.19,11.14.93Z"/><path class="cls-46" d="M121.78,287.38s-.43-6.79,8.91-6.33l-.15-2.29s-12.46-1.72-20,7.75Z"/><path class="cls-47" d="M136.18,322.76l3.48.62a1.23,1.23,0,0,1,1,1.43h0a1.24,1.24,0,0,1-1.43,1l-3.48-.62a1.23,1.23,0,0,1,.43-2.43Z"/><ellipse class="cls-44" cx="109.06" cy="317.37" rx="9.77" ry="8.07" transform="translate(-222.8 367.26) rotate(-79.58)"/><path class="cls-48" d="M109.07,321.68a4.52,4.52,0,1,1,1.74-8.88Z"/><circle class="cls-49" cx="128.53" cy="314.62" r="1.75"/><circle class="cls-49" cx="145.14" cy="317.77" r="1.75"/><path class="cls-41" d="M132.33,344.66a8.15,8.15,0,0,0,9.44-6.61l-16.06-2.84A8.16,8.16,0,0,0,132.33,344.66Z"/><path class="cls-50" d="M125.09,306.12a9.62,9.62,0,0,1,3.57-.32,7.35,7.35,0,0,1,3.09,1.43"/><path class="cls-50" d="M151,311.2a9.68,9.68,0,0,0-3.13-1.77,7.28,7.28,0,0,0-3.4,0"/><path class="cls-46" d="M136.06,326.69a10.6,10.6,0,0,0-12.27,8.6L144.65,339A10.59,10.59,0,0,0,136.06,326.69Z"/><rect class="cls-23" x="9.9" y="450.8" width="278.95" height="47.68"/><rect class="cls-51" x="174.54" y="389.9" width="54.08" height="77.54" rx="9.01" ry="9.01" transform="matrix(1, 0, 0, 1, -0.61, 0.29)"/><circle class="cls-52" cx="200.75" cy="396.36" r="1.05"/><line class="cls-53" x1="228.78" y1="442.39" x2="228.66" y2="456.92"/><line class="cls-54" x1="174.67" y1="443.22" x2="174.93" y2="457.6"/><line class="cls-55" x1="82.27" y1="447.98" x2="82.27" y2="379.51"/><line class="cls-55" x1="82.27" y1="451.66" x2="151.53" y2="451.66"/><rect class="cls-56" x="144.66" y="446.92" width="33.15" height="9.49" rx="2.77" ry="2.77" transform="translate(612.9 290.43) rotate(90)"/><rect class="cls-57" x="9.9" y="489.77" width="278.95" height="13"/><ellipse class="cls-4" cx="56.34" cy="476.04" rx="17.21" ry="2.55"/><path class="cls-58" d="M53.73,448.46s2,1.45,2,7.68"/><path class="cls-59" d="M65.12,448.08a6.4,6.4,0,0,0-5.51-.43c-2.49,1.13-3.51,3.05-3.23,3.65s3,1.43,5.1.07S65.21,448.36,65.12,448.08Z"/><path class="cls-60" d="M67.54,458.11c-3.26-7.22-10.7-4.88-12-3.11l-.14-.13v20.29c.88,0,1.28.91,3.78.88C63,476,71.53,466.94,67.54,458.11Z"/><path class="cls-60" d="M43.62,458.11c3.26-7.22,10.71-4.88,12-3.11l.14-.13v20.29c-.87,0-1.28.91-3.78.88C48.16,476,39.64,466.94,43.62,458.11Z"/><path class="cls-61" d="M210.38,334h-2.26a8.36,8.36,0,0,0-8.36,8.37v38.57"/><path class="cls-22" d="M336.36,275.35a19.55,19.55,0,1,0,19.55-19.54A19.54,19.54,0,0,0,336.36,275.35Z"/><path class="cls-41" d="M342.38,264.92a21.14,21.14,0,0,0-.13,2.27A20.3,20.3,0,0,0,369,286.44a17.1,17.1,0,0,1-26.58-21.52Z"/><path class="cls-41" d="M342.25,267.19a21.14,21.14,0,0,1,.13-2.27A17.1,17.1,0,1,1,369,286.44a20.3,20.3,0,0,1-26.71-19.25Z"/><line class="cls-62" x1="339.95" y1="275.38" x2="341.92" y2="275.38"/><line class="cls-62" x1="369.52" y1="275.38" x2="371.87" y2="275.38"/><line class="cls-62" x1="355.91" y1="259.88" x2="355.91" y2="261.83"/><line class="cls-62" x1="355.91" y1="289.21" x2="355.91" y2="291.1"/><polyline class="cls-63" points="360.77 275.38 355.91 275.38 355.91 267.77"/><rect class="cls-23" x="20.83" y="252.44" width="247.19" height="8.42"/><rect class="cls-57" x="51.83" y="694.48" width="135.9" height="24.28" rx="10.22" ry="10.22"/><rect class="cls-64" x="156.26" y="688.7" width="19.24" height="17.92" rx="5.09" ry="5.09"/><rect class="cls-64" x="49.74" y="749.6" width="19.24" height="17.92" rx="5.09" ry="5.09"/><line class="cls-65" x1="127.43" y1="748.93" x2="127.43" y2="799.42"/><line class="cls-65" x1="93.89" y1="748.93" x2="93.89" y2="799.42"/><polyline class="cls-66" points="67.52 700.09 54.06 717.62 58.41 753.05"/><path class="cls-67" d="M93.05,665.06a11.32,11.32,0,0,0-14.58,4.31L54.06,700.54l16.71,17.08,27.37-38.23A11.33,11.33,0,0,0,93.05,665.06Z"/><polyline class="cls-66" points="153.75 705.06 160.27 725.81 162.3 703.47"/><path class="cls-67" d="M136.7,669.42a11.33,11.33,0,0,1,14.58,4.31l17.26,32.33-22.68,11.56-14.25-33.86A11.34,11.34,0,0,1,136.7,669.42Z"/><line class="cls-68" x1="109.96" y1="644.51" x2="109.96" y2="663.93"/><circle class="cls-64" cx="113.75" cy="607.32" r="49.73"/><path class="cls-69" d="M155,600.93c-3.11,12.19-9.65,25.32,2.55,28.43a22.78,22.78,0,1,0,11.26-44.15C156.6,582.1,158.09,588.74,155,600.93Z"/><circle class="cls-64" cx="156.64" cy="618.58" r="13.23"/><circle class="cls-35" cx="115.94" cy="556.2" r="28.21"/><circle class="cls-69" cx="157.44" cy="576.71" r="30.03"/><path class="cls-69" d="M66,602.28c3,11.75,10.3,22.37-1.45,25.37A22,22,0,1,1,53.67,585.1C65.42,582.1,63,590.53,66,602.28Z"/><circle class="cls-69" cx="119.78" cy="555.23" r="28.21"/><circle class="cls-64" cx="68.08" cy="618.58" r="13.23"/><path class="cls-48" d="M68.54,624.23a5.66,5.66,0,0,1-.93-11.29Z"/><path class="cls-69" d="M138.07,620.05c3,11.17,7.68,28.72,17.5,26.08s11.59-8.87,4.23-31.26c-3.62-11-9.06-15-18.88-12.37S135.07,608.87,138.07,620.05Z"/><path class="cls-69" d="M85.08,618c-1.15,11.54-2.94,29.66-13,28.65s-12.87-6.89-9.23-30.24c1.79-11.46,6.52-16.32,16.63-15.31S86.23,606.45,85.08,618Z"/><ellipse class="cls-69" cx="111.68" cy="606.02" rx="39.59" ry="42.05"/><circle class="cls-69" cx="89.1" cy="549.26" r="28.21"/><circle class="cls-69" cx="68.08" cy="576.71" r="29.79"/><path class="cls-67" d="M135.6,754l-52.5-.53c-7,.12-11.57-5.09-11.13-12l4-63c.25-.91,1.57-19.22,14.65-19.22l38.37.39c10.58-.17,15.2,8.26,15.38,18.83l1.37,63A10.56,10.56,0,0,1,135.6,754Z"/><rect class="cls-57" x="62.96" y="663.76" width="93.31" height="50.48" rx="12.21" ry="12.21"/><rect class="cls-57" x="65.67" y="750.74" width="92.58" height="16.94" rx="7.05" ry="7.05"/><line class="cls-70" x1="90.78" y1="711.23" x2="90.78" y2="751.67"/><line class="cls-70" x1="127.41" y1="711.23" x2="127.41" y2="751.67"/><path class="cls-71" d="M178.46,718.16v24.76a15,15,0,0,1-15,15h-17.3"/><rect class="cls-57" x="231.69" y="694.66" width="135.9" height="24.28" rx="10.22" ry="10.22"/><path class="cls-71" d="M358.32,718.33v24.76a15,15,0,0,1-15,15H326"/><rect class="cls-72" x="229.12" y="687.25" width="21.87" height="20.38" rx="5.78" ry="5.78" transform="translate(-98.13 41.94) rotate(-8.3)"/><rect class="cls-72" x="340.26" y="687.25" width="21.87" height="20.38" rx="5.78" ry="5.78" transform="translate(243.93 1470.91) rotate(-145.38)"/><line class="cls-73" x1="308.79" y1="747.15" x2="308.79" y2="799.42"/><line class="cls-73" x1="274.08" y1="747.15" x2="274.08" y2="799.42"/><polyline class="cls-74" points="257.72 682.77 243.14 721.08 240.05 702.08"/><polyline class="cls-74" points="321.82 674.17 334.06 716.31 346.3 703.47"/><line class="cls-75" x1="290.71" y1="639.05" x2="290.71" y2="659.15"/><circle class="cls-72" cx="294.64" cy="600.54" r="51.48"/><circle class="cls-72" cx="339.04" cy="612.2" r="13.69"/><circle class="cls-72" cx="247.35" cy="612.2" r="13.69"/><path class="cls-76" d="M317.25,758.56,262.9,758c-7.29.12-12-5.27-11.52-12.45l4.19-65.25c.26-.95,1.63-19.91,15.17-19.91l30.92.41a19.84,19.84,0,0,1,20.16,19.5l6,65.25A10.92,10.92,0,0,1,317.25,758.56Z"/><rect class="cls-57" x="242.05" y="658.97" width="96.6" height="52.26" rx="12.65" ry="12.65"/><line class="cls-70" x1="272.39" y1="711.23" x2="272.39" y2="751.67"/><line class="cls-70" x1="309.03" y1="711.23" x2="309.03" y2="751.67"/><rect class="cls-57" x="244.86" y="750.49" width="95.85" height="17.54" rx="7.3" ry="7.3"/><ellipse class="cls-77" cx="293.21" cy="599.78" rx="44.64" ry="47.41"/><ellipse class="cls-77" cx="305.3" cy="590.63" rx="40.99" ry="43.54"/><ellipse class="cls-77" cx="283.24" cy="590.63" rx="40.99" ry="43.54"/><circle class="cls-76" cx="259.56" cy="569.64" r="15.38"/><circle class="cls-76" cx="329.94" cy="573.64" r="15.38"/><path class="cls-78" d="M255.64,568.85s-28.53,1.37-27.68,48.78"/><path class="cls-79" d="M255.64,568.85s-22-4.3-39.76,32"/><path class="cls-80" d="M330,573.85s31.46-9.06,30.61,38.36"/><path class="cls-81" d="M334,572.38s12.32-5.83,34.43,12.64"/></g></g></svg>