<svg xmlns="http://www.w3.org/2000/svg" xmlns:xlink="http://www.w3.org/1999/xlink" viewBox="-21045.008 -16596.613 170.223 133.967">
  <defs>
    <style>
      .cls-1 {
        clip-path: url(#clip-path);
      }

      .cls-2 {
        fill: #5f6468;
      }

      .cls-10, .cls-11, .cls-12, .cls-15, .cls-17, .cls-18, .cls-21, .cls-22, .cls-3, .cls-5, .cls-6, .cls-7 {
        fill: none;
      }

      .cls-3, .cls-5 {
        stroke: #f9b89d;
      }

      .cls-10, .cls-11, .cls-12, .cls-15, .cls-17, .cls-18, .cls-19, .cls-21, .cls-22, .cls-23, .cls-3, .cls-5, .cls-6, .cls-7 {
        stroke-linecap: round;
        stroke-miterlimit: 10;
      }

      .cls-3 {
        stroke-width: 10px;
      }

      .cls-4 {
        fill: #499fde;
      }

      .cls-5 {
        stroke-width: 13px;
      }

      .cls-6 {
        stroke: #f09d7e;
        stroke-width: 13.075px;
      }

      .cls-10, .cls-11, .cls-12, .cls-15, .cls-6, .cls-7 {
        stroke-linejoin: round;
      }

      .cls-7 {
        stroke: #7a8084;
        stroke-width: 8.354px;
      }

      .cls-8 {
        fill: #3e2514;
      }

      .cls-9 {
        fill: #ffbfa0;
      }

      .cls-10, .cls-11, .cls-12 {
        stroke: #3e2514;
      }

      .cls-10 {
        stroke-width: 16.767px;
      }

      .cls-11 {
        stroke-width: 18.292px;
      }

      .cls-12 {
        stroke-width: 12px;
      }

      .cls-13 {
        fill: #fd8e96;
      }

      .cls-13, .cls-14 {
        opacity: 0.5;
      }

      .cls-14 {
        fill: #ff6d86;
      }

      .cls-15 {
        stroke: #e55e68;
        stroke-width: 1.757px;
      }

      .cls-16 {
        fill: #cad7d8;
      }

      .cls-17, .cls-18, .cls-19, .cls-21, .cls-22, .cls-23 {
        stroke: #00a551;
      }

      .cls-17, .cls-19 {
        stroke-width: 1.544px;
      }

      .cls-18 {
        stroke-width: 2.82px;
      }

      .cls-19, .cls-23 {
        fill: #fff;
      }

      .cls-20 {
        fill: #dceaea;
      }

      .cls-21, .cls-23 {
        stroke-width: 1.772px;
      }

      .cls-22 {
        stroke-width: 3.236px;
      }
    </style>
    <clipPath id="clip-path">
      <path id="Path_1133" data-name="Path 1133" d="M167.6,122.2c0,29.1-19.7,49.7-19.7,49.7H48S12.9,59.6,98.7,55.8C156.8,53.3,167.6,93,167.6,122.2Z"/>
    </clipPath>
  </defs>
  <g id="Group_2935" data-name="Group 2935" transform="translate(-21085.9 -16652.301)">
    <g id="Group_2815" data-name="Group 2815">
      <g id="Group_2814" data-name="Group 2814" class="cls-1">
        <g id="Group_2512_3_">
          <path id="Path_573_3_" class="cls-2" d="M84.4,202.5l27.3-2.4a17.326,17.326,0,0,0,15.7-18.7L119,142c-3-10.6-12.2-16.7-21.6-15.9l-12.8,1.1c-9.4.8-16,8.2-17.1,18.2l-4.2,39.3C64.2,194.2,75,203.4,84.4,202.5Z"/>
          <g id="Group_2505_3_">
            <path id="Path_574_3_" class="cls-3" d="M62.5,162.5l-3.2,13.4.6,20.8"/>
          </g>
          <path id="Path_575_3_" class="cls-4" d="M73.7,134.9a7.074,7.074,0,0,0-9,3.4L53.3,163.8l14.8,6.3,9.4-26.3A7.206,7.206,0,0,0,73.7,134.9Z"/>
          <g id="Group_2506_3_">
            <path id="Path_576_3_" class="cls-3" d="M126.2,158.1l5,12.8,2.4,20.7"/>
          </g>
          <path id="Path_577_3_" class="cls-4" d="M111.4,132.3a7.2,7.2,0,0,1,9.4,2.1l14.8,23.7-13.8,8.3-13-24.8A7.288,7.288,0,0,1,111.4,132.3Z"/>
          <path id="Path_578_3_" class="cls-4" d="M113.1,191.4l-33.1,2c-4.4.4-7.5-2.7-7.5-7.1l-.2-40c.1-.6.2-12.2,8.4-12.8l18.9-1.1a12.037,12.037,0,0,1,13.1,11l6.4,39.6a7.027,7.027,0,0,1-5.2,8.3A2.2,2.2,0,0,1,113.1,191.4Z"/>
          <line id="Line_69_3_" class="cls-5" x2="0.9" y2="12.3" transform="translate(92.1 123.3)"/>
          <path id="Path_579_3_" class="cls-6" d="M106.7,191.3"/>
          <path id="Path_580_3_" class="cls-7" d="M106.4,133.3a50.374,50.374,0,0,0,10,30.1"/>
          <path id="Path_581_3_" class="cls-7" d="M79.1,135.2a50.234,50.234,0,0,1-5.7,31.1"/>
          <g id="Group_2511_3_">
            <path id="Ellipse_392_5_" class="cls-8" d="M84.5,68.9c14.5,0,26.9,8.7,26.9,23.2a26.2,26.2,0,0,1-52.4,0C59,77.6,70,68.9,84.5,68.9Z"/>
            <path id="Ellipse_392_4_" class="cls-8" d="M123.4,90.3a26.2,26.2,0,0,1-52.4,0c0-14.4,12.4-23.2,26.9-23.2S123.4,75.8,123.4,90.3Z"/>
            <circle id="Ellipse_393_3_" class="cls-8" cx="27.7" cy="27.7" r="27.7" transform="translate(65.9 60.2)"/>
            <g id="Group_2510_3_">
              <g id="Group_2507_3_">
                <path id="Path_908_3_" class="cls-9" d="M89.5,71.4a30.02,30.02,0,1,1,4.1,59.9C77,132.4,65.2,118.5,64,102c-.6-8.1,5.1-13.9,9.4-19.3C77.8,77.1,81.1,72,89.5,71.4Z"/>
              </g>
              <path id="Path_582_2_" class="cls-10" d="M70.2,85.6"/>
              <path id="Path_583_5_" class="cls-11" d="M116.8,90.9"/>
              <path id="Path_583_2_" class="cls-11" d="M111.4,80.1"/>
              <path id="Path_584_5_" class="cls-12" d="M77.1,74.4s8.2,14.7,39.3,9.5"/>
              <path id="Path_585_2_" class="cls-10" d="M94.1,72.7"/>
              <g id="Group_2508_3_">
                <circle id="Ellipse_395_3_" class="cls-9" cx="8" cy="8" r="8" transform="translate(109.8 98.2)"/>
                <path id="Path_586_3_" class="cls-13" d="M117.8,109.7a3.45,3.45,0,1,0,.1-6.9h0Z"/>
              </g>
              <g id="Group_2509_3_">
                <circle id="Ellipse_396_3_" class="cls-9" cx="8" cy="8" r="8" transform="translate(56.6 101.9)"/>
                <path id="Path_587_3_" class="cls-13" d="M65.1,113.3a3.552,3.552,0,0,1-3.9-3,3.436,3.436,0,0,1,2.9-3.8Z"/>
              </g>
              <path id="Path_588_3_" class="cls-14" d="M90,108.3l3.7-.3a1.4,1.4,0,0,0,1.2-1.4h0a1.4,1.4,0,0,0-1.4-1.2l-3.7.3a1.4,1.4,0,0,0-1.2,1.4h0a1.215,1.215,0,0,0,1.4,1.2Z"/>
              <ellipse id="Ellipse_397_3_" class="cls-13" cx="4.4" cy="2.1" rx="4.4" ry="2.1" transform="translate(73.558 105.7) rotate(-1.25)"/>
              <ellipse id="Ellipse_398_3_" class="cls-13" cx="3.7" cy="2.1" rx="3.7" ry="2.1" transform="translate(101.833 103.611) rotate(-1.744)"/>
              <path id="Path_590_3_" class="cls-15" d="M96.4,115.3a4.982,4.982,0,0,1-4,2.2c-2.9.2-3.7-1.7-3.7-1.7"/>
            </g>
          </g>
        </g>
        <path id="Path_1131" data-name="Path 1131" class="cls-8" d="M84.8,100.5a14.073,14.073,0,0,0-4.7-1.7,22.651,22.651,0,0,0-4.7.5,6.54,6.54,0,0,1,4.8-1.9C83.3,97.5,84.8,100.5,84.8,100.5Z"/>
        <path id="Path_1132" data-name="Path 1132" class="cls-8" d="M106.1,98.5a36.33,36.33,0,0,0-4.6-.2,17.839,17.839,0,0,0-4.7,1.3,6.107,6.107,0,0,1,4.6-2.7A5.936,5.936,0,0,1,106.1,98.5Z"/>
        <path id="Path_584_4_" class="cls-12" d="M82.3,69.8s6.6,8,27.5,4.9"/>
      </g>
    </g>
    <g id="Group_2524_3_">
      <g id="Group_2514_3_">
        <path id="Path_593_3_" class="cls-16" d="M153,183.9l-37.5-12.6a8.5,8.5,0,0,1-5.4-10.8v-.1l18.5-55a8.5,8.5,0,0,1,10.8-5.4h.1L177,112.6a8.5,8.5,0,0,1,5.4,10.8v.1l-18.5,55a8.5,8.5,0,0,1-10.8,5.4Z"/>
      </g>
      <g id="Group_2518_3_">
        <g id="Group_2515_3_">
          <line id="Line_70_3_" class="cls-17" x2="17.7" y2="6.2" transform="translate(156.7 114.6)"/>
          <line id="Line_71_3_" class="cls-17" x2="17.7" y2="6.1" transform="translate(154 122.4)"/>
          <line id="Line_72_3_" class="cls-17" x2="17.7" y2="6.2" transform="translate(151.3 130.1)"/>
        </g>
        <g id="Group_2516_3_">
          <line id="Line_73_3_" class="cls-18" x2="4.9" y2="18.4" transform="translate(138.4 108.3)"/>
          <line id="Line_74_3_" class="cls-18" x1="15.2" y2="11.4" transform="translate(133 111.7)"/>
        </g>
        <g id="Group_2517_3_">
          <path id="Path_594_3_" class="cls-19" d="M153.1,175.4l-33.4-11.6a2.119,2.119,0,0,1-1.3-2.7l10.3-29.5a2.119,2.119,0,0,1,2.7-1.3l16.3,5.7,17.1,6a2.119,2.119,0,0,1,1.3,2.7l-10.3,29.5A2.251,2.251,0,0,1,153.1,175.4Z"/>
          <line id="Line_75_3_" class="cls-17" x2="37.5" y2="13" transform="translate(126.8 136.7)"/>
          <line id="Line_76_3_" class="cls-17" x2="37.5" y2="13.1" transform="translate(124.5 143.2)"/>
          <line id="Line_77_3_" class="cls-17" x2="37.5" y2="13" transform="translate(122.2 149.8)"/>
          <line id="Line_78_3_" class="cls-17" x2="37.4" y2="13.1" transform="translate(120 156.3)"/>
          <line id="Line_79_3_" class="cls-17" y1="31.6" x2="11" transform="translate(136.7 137)"/>
        </g>
      </g>
      <g id="Group_2523_3_">
        <path id="Path_595_3_" class="cls-20" d="M168.1,188.7,127.6,169a9.651,9.651,0,0,1-4.5-13v-.1L152,96.6a9.651,9.651,0,0,1,13-4.5h.1l40.5,19.7a9.651,9.651,0,0,1,4.5,13v.1l-28.9,59.3a9.877,9.877,0,0,1-13.1,4.5Z"/>
        <g id="Group_2522_3_">
          <g id="Group_2519_3_">
            <line id="Line_80_3_" class="cls-21" x2="19.4" y2="9.4" transform="translate(182.3 111.4)"/>
            <line id="Line_81_3_" class="cls-21" x2="19.3" y2="9.4" transform="translate(178.2 119.8)"/>
            <line id="Line_82_3_" class="cls-21" x2="19.3" y2="9.4" transform="translate(174.1 128.3)"/>
          </g>
          <g id="Group_2520_3_">
            <line id="Line_83_3_" class="cls-22" x2="3.1" y2="21.7" transform="translate(162.4 101.6)"/>
            <line id="Line_84_3_" class="cls-22" x1="18.9" y2="11" transform="translate(154.2 106.8)"/>
          </g>
          <g id="Group_2521_3_">
            <path id="Path_596_3_" class="cls-23" d="M170,180.1l-36.5-17.8a2.482,2.482,0,0,1-1.1-3.3l15.7-32.2a2.482,2.482,0,0,1,3.3-1.1l17.8,8.7,18.7,9.1a2.482,2.482,0,0,1,1.1,3.3L173.3,179A2.576,2.576,0,0,1,170,180.1Z"/>
            <line id="Line_85_3_" class="cls-21" x2="40.9" y2="20" transform="translate(145.3 132.4)"/>
            <line id="Line_86_3_" class="cls-21" x2="40.9" y2="19.9" transform="translate(141.8 139.6)"/>
            <line id="Line_87_3_" class="cls-21" x2="40.9" y2="20" transform="translate(138.3 146.7)"/>
            <line id="Line_88_3_" class="cls-21" x2="41" y2="19.9" transform="translate(134.8 153.9)"/>
            <line id="Line_89_3_" class="cls-21" y1="34.5" x2="16.9" transform="translate(152.2 135.6)"/>
          </g>
        </g>
      </g>
    </g>
  </g>
</svg>
