<svg xmlns="http://www.w3.org/2000/svg" xmlns:xlink="http://www.w3.org/1999/xlink" viewBox="0 0 218.591 160.301">
  <defs>
    <style>
      .cls-1 {
        clip-path: url(#clip-path);
      }

      .cls-2 {
        fill: #5f6468;
      }

      .cls-10, .cls-11, .cls-12, .cls-15, .cls-18, .cls-25, .cls-28, .cls-3, .cls-31, .cls-34, .cls-5, .cls-6, .cls-7 {
        fill: none;
        stroke-linecap: round;
      }

      .cls-3, .cls-5 {
        stroke: #f9b89d;
      }

      .cls-10, .cls-11, .cls-12, .cls-15, .cls-25, .cls-28, .cls-3, .cls-5, .cls-6, .cls-7 {
        stroke-miterlimit: 10;
      }

      .cls-3 {
        stroke-width: 10px;
      }

      .cls-4 {
        fill: #499fde;
      }

      .cls-5 {
        stroke-width: 13px;
      }

      .cls-6 {
        stroke: #f09d7e;
        stroke-width: 13.075px;
      }

      .cls-10, .cls-11, .cls-12, .cls-15, .cls-18, .cls-31, .cls-34, .cls-6, .cls-7 {
        stroke-linejoin: round;
      }

      .cls-7 {
        stroke: #7a8084;
        stroke-width: 8.354px;
      }

      .cls-8 {
        fill: #3e2514;
      }

      .cls-9 {
        fill: #ffbfa0;
      }

      .cls-10, .cls-11, .cls-12 {
        stroke: #3e2514;
      }

      .cls-10 {
        stroke-width: 16.767px;
      }

      .cls-11 {
        stroke-width: 18.292px;
      }

      .cls-12 {
        stroke-width: 12px;
      }

      .cls-13 {
        fill: #fd8e96;
      }

      .cls-13, .cls-14, .cls-29 {
        opacity: 0.5;
      }

      .cls-14 {
        fill: #ff6d86;
      }

      .cls-15 {
        stroke: #e55e68;
        stroke-width: 1.757px;
      }

      .cls-16 {
        clip-path: url(#clip-path-2);
      }

      .cls-17 {
        fill: #8c4d22;
      }

      .cls-18 {
        stroke: #221d42;
        stroke-width: 21.098px;
      }

      .cls-19 {
        fill: #130a2d;
      }

      .cls-20 {
        fill: #f5f4f9;
      }

      .cls-21 {
        fill: #eaac81;
      }

      .cls-22 {
        fill: #fff;
      }

      .cls-23 {
        fill: #212466;
      }

      .cls-24 {
        fill: #1f193a;
      }

      .cls-25, .cls-28, .cls-31 {
        stroke: #8c4d22;
      }

      .cls-25 {
        stroke-width: 1.681px;
      }

      .cls-26 {
        fill: #efba93;
      }

      .cls-27 {
        fill: #efb289;
      }

      .cls-28 {
        stroke-width: 1.712px;
      }

      .cls-29 {
        fill: #ad4732;
      }

      .cls-30 {
        fill: #491b0d;
      }

      .cls-31 {
        stroke-width: 0.957px;
      }

      .cls-32 {
        fill: #e0d4e0;
      }

      .cls-33 {
        fill: #291c4c;
      }

      .cls-34 {
        stroke: #f4c199;
        stroke-width: 13.529px;
      }
    </style>
    <clipPath id="clip-path">
      <path id="Path_1133" data-name="Path 1133" d="M155.616,115.909c0,26.348-17.837,45-17.837,45H47.328S15.547,59.23,93.233,55.789C145.838,53.526,155.616,89.471,155.616,115.909Z" transform="translate(-40.892 -55.688)"/>
    </clipPath>
    <clipPath id="clip-path-2">
      <rect id="Rectangle_3099" data-name="Rectangle 3099" width="181.93" height="160.301"/>
    </clipPath>
  </defs>
  <g id="Group_3199" data-name="Group 3199" transform="translate(-416.409 -318.499)">
    <g id="Group_2814" data-name="Group 2814" class="cls-1" transform="translate(416.409 353.141)">
      <g id="Group_2512_3_" transform="translate(11.234 4.086)">
        <path id="Path_573_3_" class="cls-2" d="M82.4,195.268l24.718-2.173a15.687,15.687,0,0,0,14.215-16.931l-7.606-35.674c-2.716-9.6-11.046-15.121-19.557-14.4l-11.589,1c-8.511.724-14.487,7.424-15.483,16.479l-3.8,35.583C64.115,187.753,73.893,196.082,82.4,195.268Z" transform="translate(-54.246 -66.426)"/>
        <g id="Group_2505_3_" transform="translate(5.433 92.625)">
          <path id="Path_574_3_" class="cls-3" d="M62.2,162.5l-2.9,12.133.543,18.833" transform="translate(-59.3 -162.5)"/>
        </g>
        <path id="Path_575_3_" class="cls-4" d="M71.771,134.85a6.4,6.4,0,0,0-8.149,3.078L53.3,161.017l13.4,5.7,8.511-23.813A6.524,6.524,0,0,0,71.771,134.85Z" transform="translate(-53.3 -67.216)"/>
        <g id="Group_2506_3_" transform="translate(66.005 88.641)">
          <path id="Path_576_3_" class="cls-3" d="M126.2,158.1l4.527,11.589,2.173,18.742" transform="translate(-126.2 -158.1)"/>
        </g>
        <path id="Path_577_3_" class="cls-4" d="M111.085,132.213a6.522,6.522,0,0,1,8.511,1.9L133,155.573,120.5,163.088l-11.77-22.454A6.6,6.6,0,0,1,111.085,132.213Z" transform="translate(-58.48 -66.932)"/>
        <path id="Path_578_3_" class="cls-4" d="M109.241,185.815l-29.969,1.811c-3.984.362-6.791-2.445-6.791-6.428L72.3,144.981c.091-.543.181-11.046,7.606-11.589l17.112-1a10.9,10.9,0,0,1,11.861,9.96l5.795,35.855a6.362,6.362,0,0,1-4.708,7.515A1.993,1.993,0,0,1,109.241,185.815Z" transform="translate(-55.097 -67.024)"/>
        <line id="Line_69_3_" class="cls-5" x2="0.815" y2="11.137" transform="translate(35.13 57.132)"/>
        <path id="Path_579_3_" class="cls-6" d="M106.7,191.3" transform="translate(-58.351 -72.599)"/>
        <path id="Path_580_3_" class="cls-7" d="M106.4,133.3a45.61,45.61,0,0,0,9.054,27.253" transform="translate(-58.322 -67.114)"/>
        <path id="Path_581_3_" class="cls-7" d="M78.561,135.2A45.483,45.483,0,0,1,73.4,163.359" transform="translate(-55.201 -67.293)"/>
        <g id="Group_2511_3_" transform="translate(2.988)">
          <path id="Ellipse_392_5_" class="cls-8" d="M82.088,68.9c13.129,0,24.356,7.877,24.356,21.006a23.722,23.722,0,1,1-47.444,0C59,76.777,68.96,68.9,82.088,68.9Z" transform="translate(-56.827 -61.023)"/>
          <path id="Ellipse_392_4_" class="cls-8" d="M118.444,88.106a23.722,23.722,0,0,1-47.444,0C71,75.068,82.227,67.1,95.356,67.1S118.444,74.977,118.444,88.106Z" transform="translate(-57.962 -60.853)"/>
          <ellipse id="Ellipse_393_3_" class="cls-8" cx="25.08" cy="25.08" rx="25.08" ry="25.08" transform="translate(8.42)"/>
          <g id="Group_2510_3_" transform="translate(0 10.079)">
            <g id="Group_2507_3_" transform="translate(6.661)">
              <path id="Path_908_3_" class="cls-9" d="M87.084,71.394A27.181,27.181,0,0,1,90.8,125.628c-15.03,1-25.714-11.589-26.8-26.529-.543-7.334,4.618-12.585,8.511-17.475C76.491,76.554,79.479,71.937,87.084,71.394Z" transform="translate(-63.956 -71.332)"/>
            </g>
            <path id="Path_582_2_" class="cls-10" d="M70.2,85.6" transform="translate(-57.886 -72.682)"/>
            <path id="Path_583_5_" class="cls-11" d="M116.8,90.9" transform="translate(-62.294 -73.183)"/>
            <path id="Path_583_2_" class="cls-11" d="M111.4,80.1" transform="translate(-61.783 -72.161)"/>
            <path id="Path_584_5_" class="cls-12" d="M77.1,74.4s7.424,13.31,35.583,8.6" transform="translate(-58.539 -71.622)"/>
            <path id="Path_585_2_" class="cls-10" d="M94.1,72.7" transform="translate(-60.147 -71.462)"/>
            <g id="Group_2508_3_" transform="translate(48.168 24.327)">
              <ellipse id="Ellipse_395_3_" class="cls-9" cx="7.243" cy="7.243" rx="7.243" ry="7.243"/>
              <path id="Path_586_3_" class="cls-13" d="M117.8,109.047a3.124,3.124,0,1,0,.091-6.247h0Z" transform="translate(-110.557 -98.635)"/>
            </g>
            <g id="Group_2509_3_" transform="translate(0 27.677)">
              <ellipse id="Ellipse_396_3_" class="cls-9" cx="7.243" cy="7.243" rx="7.243" ry="7.243"/>
              <path id="Path_587_3_" class="cls-13" d="M64.729,112.657a3.216,3.216,0,0,1-3.531-2.716,3.111,3.111,0,0,1,2.626-3.441Z" transform="translate(-57.033 -102.335)"/>
            </g>
            <path id="Path_588_3_" class="cls-14" d="M89.868,108.026l3.35-.272a1.27,1.27,0,0,0,1.087-1.268h0a1.27,1.27,0,0,0-1.268-1.087l-3.35.272a1.27,1.27,0,0,0-1.087,1.268h0a1.1,1.1,0,0,0,1.268,1.087Z" transform="translate(-59.627 -74.554)"/>
            <ellipse id="Ellipse_397_3_" class="cls-13" cx="3.984" cy="1.901" rx="3.984" ry="1.901" transform="translate(15.354 31.117) rotate(-1.25)"/>
            <ellipse id="Ellipse_398_3_" class="cls-13" cx="3.35" cy="1.901" rx="3.35" ry="1.901" transform="translate(40.955 29.226) rotate(-1.744)"/>
            <path id="Path_590_3_" class="cls-15" d="M95.672,115.3a4.511,4.511,0,0,1-3.622,1.992c-2.626.181-3.35-1.539-3.35-1.539" transform="translate(-59.636 -75.491)"/>
          </g>
        </g>
      </g>
      <path id="Path_1131" data-name="Path 1131" class="cls-8" d="M83.911,100.206a12.742,12.742,0,0,0-4.255-1.539,20.509,20.509,0,0,0-4.255.453,5.922,5.922,0,0,1,4.346-1.72A5.276,5.276,0,0,1,83.911,100.206Z" transform="translate(-44.156 -59.632)"/>
      <path id="Path_1132" data-name="Path 1132" class="cls-8" d="M105.22,98.347a32.893,32.893,0,0,0-4.165-.181A16.152,16.152,0,0,0,96.8,99.343a5.53,5.53,0,0,1,4.165-2.445A5.374,5.374,0,0,1,105.22,98.347Z" transform="translate(-46.18 -59.584)"/>
      <path id="Path_584_4_" class="cls-12" d="M82.3,69.8s5.976,7.243,24.9,4.437" transform="translate(-44.809 -57.022)"/>
    </g>
    <g id="Group_2810" data-name="Group 2810" class="cls-16" transform="translate(453.07 318.499)">
      <path id="Path_812_1_" class="cls-17" d="M121.4,61.31a7.51,7.51,0,0,0-3.83.451c-2.14,1.126,2.14,1.69,4.055,1.8,1.915.225,3.154,0,3.154-.789C124.888,61.986,122.522,61.31,121.4,61.31Z" transform="translate(-32.74 -40.92)"/>
      <g id="Group_2809" data-name="Group 2809" transform="translate(37.287 19.376)">
        <line id="Line_212_1_" class="cls-18" y1="28.388" x2="23.769" transform="translate(0 89.106)"/>
        <line id="Line_213_1_" class="cls-18" x1="21.854" y1="26.811" transform="translate(75.138 89.106)"/>
        <path id="Path_793_1_" class="cls-19" d="M109.506,122.1h27.712a23.173,23.173,0,0,1,23.206,23.206v77.053a10.577,10.577,0,0,1-10.589,10.589H96.889A10.577,10.577,0,0,1,86.3,222.358V145.306A23.173,23.173,0,0,1,109.506,122.1Z" transform="translate(-73.909 -52.595)"/>
        <path id="Path_794_1_" class="cls-20" d="M121.758,184.05l14.307-61.845a111.141,111.141,0,0,0-13.518-1.8c-5.633-.338-16.447,2.7-16.447,2.7S111.845,155.662,121.758,184.05Z" transform="translate(-71.404 -52.813)"/>
        <path id="Path_795_1_" class="cls-21" d="M108.225,126.117,108,85h24.783l.225,48.439c-.225,5.632-5.182,5.858-12.392,5.407C111.943,138.058,108.225,130.06,108.225,126.117Z" transform="translate(-71.163 -57.288)"/>
        <path id="Path_796_1_" class="cls-22" d="M108.6,120.5s-1.464,7.886,11.6,13.518c0,0-4.506-.789-8.9,8.449L105.9,122.3A2.818,2.818,0,0,1,108.6,120.5Z" transform="translate(-71.429 -52.797)"/>
        <path id="Path_797_1_" class="cls-22" d="M108.591,120.5s-.225,9.35,13.293,13.518c0,0-6.083-.789-10.476,8.449L106,122.3A2.576,2.576,0,0,1,108.591,120.5Z" transform="translate(-71.416 -52.797)"/>
        <path id="Path_798_1_" class="cls-22" d="M131.59,120.7s1.464,7.548-11.49,13.18c0,0,5.182-.113,9.575,9.012l4.731-20.728A2.9,2.9,0,0,0,131.59,120.7Z" transform="translate(-69.633 -52.774)"/>
        <path id="Path_799_1_" class="cls-23" d="M115.3,134.3l3.38,5.182a2.346,2.346,0,0,0,3.267.676l.676-.676,3.38-4.168a5.891,5.891,0,0,0-5.407-2.816C116.652,132.5,115.3,134.3,115.3,134.3Z" transform="translate(-70.24 -51.28)"/>
        <path id="Path_800_1_" class="cls-23" d="M116.8,167.915l2.14-28.05s.225-2.366,1.464-2.366,1.69,2.366,1.69,2.366l2.366,28.726L120.4,182Z" transform="translate(-70.05 -50.647)"/>
        <path id="Path_801_1_" class="cls-24" d="M106.267,122.1l15.884,61.732L105.929,149.7l3.83-8.111L103,136.294Z" transform="translate(-71.796 -52.595)"/>
        <path id="Path_802_1_" class="cls-24" d="M134.307,122,120,183.845l16.222-34.133-3.83-8.111,6.759-5.295Z" transform="translate(-69.645 -52.608)"/>
        <path id="Path_811_1_" class="cls-25" d="M127.614,60.4s-3.83,6.2-10.814,1.577" transform="translate(-70.05 -60.4)"/>
        <g id="Group_2808" data-name="Group 2808" transform="translate(25.72 1.126)">
          <path id="Path_803_1_" class="cls-26" d="M122.137,126.061h-2.366c-9.913-.113-15.884-7.885-15.771-17.461l.338-39.991a6.447,6.447,0,0,1,6.646-6.308h0l12.729-.9A14.019,14.019,0,0,1,137.8,75.143h0l-.338,33.232C137.57,118.176,132.163,126.061,122.137,126.061Z" transform="translate(-97.39 -61.4)"/>
          <path id="Path_804_1_" class="cls-17" d="M132.263,81.923,132.038,96s-1.8-9.237,4.844-6.759l-.789-15.32L131.7,73.7Z" transform="translate(-93.885 -59.844)"/>
          <ellipse id="Ellipse_464_1_" class="cls-26" cx="7.097" cy="8.223" rx="7.097" ry="8.223" transform="translate(33.893 25.19) rotate(-0.594)"/>
          <path id="Path_805_1_" class="cls-27" d="M134.013,95.06a3.892,3.892,0,0,0,3.83-3.943A3.952,3.952,0,0,0,133.9,87.4Z" transform="translate(-93.607 -58.111)"/>
          <path id="Path_806_1_" class="cls-17" d="M130.292,70.572s4.055-3.379-3.492-6.872h2.028s2.478,1.352,5.069,5.52Z" transform="translate(-94.505 -61.109)"/>
          <path id="Path_807_1_" class="cls-17" d="M128.7,74.874c0,4.168,2.7,7.66,6.083,7.66V70.594c0-2.028-1.69-3.267-3.042-2.253A7.755,7.755,0,0,0,128.7,74.874Z" transform="translate(-94.266 -60.568)"/>
          <path id="Path_808_1_" class="cls-28" d="M101.916,78.072C100.451,63.315,110.59,61.4,120.728,61.4c20.164,0,18.362,16.672,18.362,16.672" transform="translate(-97.671 -61.4)"/>
          <path id="Path_809_1_" class="cls-17" d="M105.206,82.012l.225,14.081s1.915-9.35-4.731-6.872L101.038,73l4.731.9Z" transform="translate(-97.807 -59.933)"/>
          <path id="Path_810_1_" class="cls-17" d="M106.544,69.86s-4.506-2.7,3.492-6.534L111.05,62.2a13.123,13.123,0,0,0-9.35,7.1Z" transform="translate(-97.68 -61.299)"/>
          <path id="Path_813_1_" class="cls-29" d="M117.814,92.5h3.154a1.111,1.111,0,0,1,1.127,1.014h0a1.04,1.04,0,0,1-1.127,1.014h-3.154A1.2,1.2,0,0,1,116.8,93.4c0-.451.451-.789,1.014-.9Z" transform="translate(-95.77 -57.466)"/>
          <ellipse id="Ellipse_465_1_" class="cls-26" cx="8.223" cy="7.097" rx="8.223" ry="7.097" transform="translate(0 41.469) rotate(-89.406)"/>
          <path id="Path_814_1_" class="cls-27" d="M105.543,95.06a3.971,3.971,0,0,1-3.943-3.83,3.923,3.923,0,0,1,4.055-3.83h.113Z" transform="translate(-97.693 -58.111)"/>
          <path id="Path_815_1_" class="cls-22" d="M119.9,109.972a7.049,7.049,0,0,0,7.21-6.872H112.8A6.813,6.813,0,0,0,119.9,109.972Z" transform="translate(-96.277 -56.125)"/>
          <ellipse id="Ellipse_466_1_" class="cls-30" cx="1.577" cy="1.464" rx="1.577" ry="1.464" transform="translate(15.397 27.937)"/>
          <ellipse id="Ellipse_467_1_" class="cls-30" cx="1.577" cy="1.464" rx="1.577" ry="1.464" transform="translate(28.803 27.937)"/>
          <path id="Path_816_1_" class="cls-31" d="M109.4,82.089a9.326,9.326,0,0,1,3.042-.789,6.572,6.572,0,0,1,2.929.676" transform="translate(-96.706 -58.883)"/>
          <path id="Path_817_1_" class="cls-31" d="M129.358,82.117a7.007,7.007,0,0,0-2.929-1.014,6.415,6.415,0,0,0-2.929.451" transform="translate(-94.923 -58.911)"/>
          <path id="Path_818_1_" class="cls-17" d="M120.15,95.5a9.168,9.168,0,0,0-9.35,8.9h18.587A9.067,9.067,0,0,0,120.15,95.5Z" transform="translate(-96.529 -57.086)"/>
          <path id="Path_819_1_" class="cls-17" d="M108.483,74.939c0,4.168-2.7,7.66-6.083,7.66V69.081c0-1.014.789-1.8,1.577-1.577C106.568,68.406,108.483,71.447,108.483,74.939Z" transform="translate(-97.592 -60.633)"/>
        </g>
        <line id="Line_214_1_" class="cls-18" x1="23.206" y2="22.192" transform="translate(73.786 115.917)"/>
        <line id="Line_215_1_" class="cls-18" x2="25.121" y2="20.615" transform="translate(0 117.494)"/>
        <path id="Rectangle_3015_1_" class="cls-32" d="M106.46,147.8h30.528a7.668,7.668,0,0,1,7.66,7.66l.113,50.355a7.668,7.668,0,0,1-7.66,7.66H106.573a7.668,7.668,0,0,1-7.66-7.66L98.8,155.46A7.6,7.6,0,0,1,106.46,147.8Z" transform="translate(-72.327 -49.344)"/>
        <ellipse id="Ellipse_468_1_" class="cls-33" cx="0.901" cy="0.901" rx="0.901" ry="0.901" transform="translate(47.764 104.089)"/>
        <line id="Line_216_1_" class="cls-34" x1="0.113" y2="12.279" transform="translate(72.321 133.152)"/>
        <line id="Line_217_1_" class="cls-34" x1="0.113" y2="12.279" transform="translate(27.825 132.026)"/>
      </g>
    </g>
  </g>
</svg>
