<svg xmlns="http://www.w3.org/2000/svg" viewBox="0 0 210 135"><defs><style>.cls-1,.cls-2,.cls-3,.cls-4{fill:none;stroke-width:2.54px;}.cls-1{stroke:#499fde;stroke-miterlimit:10;}.cls-2{stroke:#faaf40;}.cls-2,.cls-3,.cls-4{stroke-linecap:round;stroke-linejoin:round;}.cls-3,.cls-4{stroke:#3a377a;}.cls-4{opacity:0;}.cls-5{fill:#828699;}.cls-6{fill:#ec3d15;}.cls-7{fill:#eff9f8;}.cls-8{fill:#d8f5fc;}.cls-9{fill:#8c1319;}</style></defs><title>Artboard 29 copy 2</title><g id="Layer_10" data-name="Layer 10"><circle class="cls-1" cx="105" cy="67.01" r="59.5"/><path class="cls-2" d="M76.16,119.05A59.5,59.5,0,1,1,157,95.85"/><path class="cls-3" d="M45.51,66.48a59.49,59.49,0,1,1,119,1.06"/><path class="cls-4" d="M104.47,126.5A59.52,59.52,0,0,1,49.72,89.05"/><path class="cls-5" d="M130.13,58.65H137a.38.38,0,0,0,.39-.38h0a3.81,3.81,0,0,0-3.82-3.81h-4.87Z"/><path class="cls-5" d="M76.82,58.65H69.93a.38.38,0,0,1-.38-.38h0a3.8,3.8,0,0,1,3.81-3.81h4.88Z"/><rect x="73.01" y="79.97" width="13.98" height="10.83" rx="2.8" ry="2.8"/><rect x="120.61" y="79.97" width="13.98" height="10.83" rx="2.8" ry="2.8"/><path class="cls-6" d="M131.12,59.74c-1.16-9.53-6.42-16.53-12.93-16.53H89.3c-6.5,0-11.76,7-12.94,16.52-4.11,2.36-6.28,6.84-6.28,12,0,14.9,16.25,13.8,16.25,13.8h34.83s16.25,1.1,16.25-13.8C137.4,66.57,135.23,62.09,131.12,59.74Z"/><path class="cls-7" d="M81.71,76.25a4.49,4.49,0,1,1,4.49-4.48A4.48,4.48,0,0,1,81.71,76.25Z"/><path class="cls-8" d="M83.31,58a15.4,15.4,0,0,0-2.51.23c1.29-6.26,4.65-10.87,8.49-10.87h28.9c3.84,0,7.2,4.61,8.49,10.87C126.25,58.13,83.31,58,83.31,58Z"/><path class="cls-9" d="M114.94,74.39H92.54a1.39,1.39,0,0,1,0-2.74h22.4a1.39,1.39,0,0,1,0,2.74Z"/><path class="cls-7" d="M125.77,76.25a4.49,4.49,0,1,1,4.48-4.48A4.48,4.48,0,0,1,125.77,76.25Z"/></g></svg>