<svg xmlns="http://www.w3.org/2000/svg" viewBox="0 0 32 32"><defs><style>.cls-1{fill:#499fde;}.cls-2{fill:#6e6aa5;}.cls-3{fill:#1f154a;}.cls-4{fill:none;stroke:#6e6aa5;stroke-linecap:round;stroke-linejoin:round;stroke-width:4.24px;}</style></defs><title>menu_scanner</title><g id="Layer_9" data-name="Layer 9"><path class="cls-1" d="M26.84,3.85a8.07,8.07,0,0,1-3.19,7.22S6.87,14.6,6.26,9.16C5.9,5.91,15.3,2,26.84,3.85Z"/><path class="cls-2" d="M12.85,24.87A.94.94,0,0,0,13.32,26l.82.4-8.78-1s1.81-4.81,2.41-7c1.14-4.13,2.73-5.13.39-7.07,0,0,1.67-1.87,5.21-1.37s4,2.37,4,2.37Z"/><path class="cls-3" d="M20.34,11.64a6.5,6.5,0,0,0-2.21,3.54.54.54,0,0,1-.77.37,2.76,2.76,0,0,1-1.31-1.35,1.68,1.68,0,0,1,.65-2.14Z"/><line class="cls-4" x1="7.45" y1="25.74" x2="12.73" y2="28.03"/></g></svg>