<svg xmlns="http://www.w3.org/2000/svg" xmlns:xlink="http://www.w3.org/1999/xlink" viewBox="0 0 32 32"><defs><style>.cls-1,.cls-13,.cls-14,.cls-15,.cls-5,.cls-6{fill:none;}.cls-2{clip-path:url(#clip-path);}.cls-3{fill:#5f6468;}.cls-4{fill:#499fde;}.cls-5{stroke:#f2b186;stroke-width:5px;}.cls-13,.cls-14,.cls-15,.cls-5,.cls-6{stroke-linecap:round;stroke-linejoin:round;}.cls-6{stroke:#7a8084;stroke-width:3.2px;}.cls-7{fill:#f4c199;}.cls-8{fill:#eb7826;}.cls-9{fill:#efb289;}.cls-10{fill:#ad4732;}.cls-10,.cls-11{opacity:0.5;}.cls-11{fill:#e8754d;}.cls-12{fill:#491b0d;}.cls-13,.cls-14{stroke:#8c4d22;}.cls-14{stroke-width:0.7px;}.cls-15{stroke:#eb7826;stroke-width:5.69px;}</style><clipPath id="clip-path"><rect class="cls-1" width="32" height="32"/></clipPath></defs><title>menu_students</title><g id="Layer_9" data-name="Layer 9"><g class="cls-2"><path class="cls-3" d="M11.09,52.74l10.48-.19a6.62,6.62,0,0,0,6.48-6.72L25.89,30.58a8,8,0,0,0-7.83-6.65L13.15,24c-3.63.06-6.34,2.7-7,6.49L3.5,45.4C3.56,49,7.46,52.8,11.09,52.74Z"/><path class="cls-4" d="M8.77,26.64a2.74,2.74,0,0,0-3.53,1.05l-5,9.42,5.49,2.8,4.3-9.8A2.74,2.74,0,0,0,8.77,26.64Z"/><path class="cls-4" d="M23.23,26.64a2.74,2.74,0,0,1,3.53,1.05l5,9.42-5.49,2.8L22,30.11A2.74,2.74,0,0,1,23.23,26.64Z"/><path class="cls-4" d="M22.32,49.23,9.62,49.1a2.57,2.57,0,0,1-2.69-2.91l1-15.27c.06-.22.38-4.66,3.55-4.66l7.22.09a4.64,4.64,0,0,1,4.71,4.57l1.4,15.27A2.56,2.56,0,0,1,22.32,49.23Z"/><line class="cls-5" x1="16.12" y1="22.7" x2="16.12" y2="27.4"/><path class="cls-6" d="M21.32,26.88a19.22,19.22,0,0,0,3,11.74"/><path class="cls-6" d="M10.85,26.88a19.28,19.28,0,0,1-3,11.74"/><path class="cls-7" d="M5.65,11.51a11.23,11.23,0,0,0,8,13.88,11.11,11.11,0,0,0,13.61-8.26,11.32,11.32,0,0,0-7.94-14A11.25,11.25,0,0,0,5.65,11.51Z"/><path class="cls-8" d="M5.32,13.74s5.83,3.68,5.15-6.14c0,0-3.12-2.32-5.11.68C3.2,11.55,5.32,13.74,5.32,13.74Z"/><path class="cls-8" d="M7.2,11.07c.1.32,15.59-6.52,15.59-6.52A11.43,11.43,0,0,0,19,2.78C12.83,1.21,5.28,4.91,7.2,11.07Z"/><path class="cls-8" d="M27.66,14.27s-5.2,1.28-4.51-8.55c0,0,.14-3,2.83,1.3S27.66,14.27,27.66,14.27Z"/><ellipse class="cls-7" cx="5.96" cy="16.72" rx="3.05" ry="3.05"/><path class="cls-9" d="M6.07,18a1.31,1.31,0,0,1-.21-2.61Z"/><rect class="cls-10" x="14.81" y="17.52" width="2.38" height="0.98" rx="0.49" ry="0.49" transform="translate(32.45 35.62) rotate(178.56)"/><ellipse class="cls-11" cx="10.47" cy="17.95" rx="1.04" ry="0.82"/><ellipse class="cls-11" cx="22.11" cy="17.95" rx="1.04" ry="0.82"/><circle class="cls-12" cx="19.65" cy="15.67" r="0.75"/><circle class="cls-12" cx="12.81" cy="15.67" r="0.75"/><path class="cls-13" d="M21.71,13.68a3.74,3.74,0,0,0-1.29-.63,3,3,0,0,0-1.34.1"/><path class="cls-14" d="M17.56,21.36A1.89,1.89,0,0,1,16,22.1a1.34,1.34,0,0,1-1.36-.74"/><path class="cls-13" d="M11.07,12.88a2.63,2.63,0,0,1,1.07-.42,1.85,1.85,0,0,1,1,.06"/><ellipse class="cls-7" cx="26.38" cy="16.85" rx="3.05" ry="3.05"/><path class="cls-9" d="M26.28,18.15a1.3,1.3,0,0,0,.21-2.6Z"/><path class="cls-15" d="M10.12,6.13s7.44,4.14,15.12-2.69"/></g></g></svg>