<svg xmlns="http://www.w3.org/2000/svg" xmlns:xlink="http://www.w3.org/1999/xlink" viewBox="0 0 210 135"><defs><style>.cls-1,.cls-13,.cls-16,.cls-19,.cls-21,.cls-3{fill:none;}.cls-2{clip-path:url(#clip-path);}.cls-3{stroke:#221d42;stroke-width:20.21px;}.cls-13,.cls-16,.cls-19,.cls-3{stroke-linecap:round;}.cls-16,.cls-19,.cls-3{stroke-linejoin:round;}.cls-4{fill:#130a2d;}.cls-5{fill:#f5f4f9;}.cls-6{fill:#eaac81;}.cls-7{fill:#fff;}.cls-8{fill:#212466;}.cls-9{fill:#1f193a;}.cls-10{fill:#efba93;}.cls-11{fill:#8c4d22;}.cls-12{fill:#efb289;}.cls-13,.cls-16{stroke:#8c4d22;}.cls-13,.cls-21{stroke-miterlimit:10;}.cls-13{stroke-width:1.61px;}.cls-14{fill:#ad4732;opacity:0.5;}.cls-15{fill:#491b0d;}.cls-16{stroke-width:0.9px;}.cls-17{fill:#e0d4e0;}.cls-18{fill:#291c4c;}.cls-19{stroke:#f4c199;stroke-width:12.96px;}.cls-20{fill:#ec3d15;}.cls-21{stroke:#f6f6f6;stroke-width:2.58px;}</style><clipPath id="clip-path"><rect class="cls-1" x="31.79" y="-20.63" width="161.49" height="142.34"/></clipPath></defs><title>Artboard 29 copy 3</title><g id="Layer_10" data-name="Layer 10"><g class="cls-2"><line class="cls-3" x1="64.8" y1="104.16" x2="85.09" y2="80"/><line class="cls-3" x1="148.26" y1="102.83" x2="129.73" y2="80"/><path class="cls-4" d="M95.16,62.34h23.59a19.75,19.75,0,0,1,19.75,19.75v65.53a9,9,0,0,1-9,9H84.38a9,9,0,0,1-9-9V82.09A19.75,19.75,0,0,1,95.16,62.34Z"/><path class="cls-5" d="M107.7,114.91l12.17-52.58a99.17,99.17,0,0,0-11.49-1.49c-4.79-.3-13.95,2.27-13.95,2.27S99.25,90.73,107.7,114.91Z"/><path class="cls-6" d="M96.41,61.79l-.16-35,21.11,0,.17,41.17c-.16,4.81-4.42,5-10.57,4.6C99.49,72,96.41,65.13,96.41,61.79Z"/><path class="cls-7" d="M96.44,60.84s-1.21,6.7,9.89,11.54c0,0-3.84-.63-7.55,7.14L94.17,62.36A2.44,2.44,0,0,1,96.44,60.84Z"/><path class="cls-7" d="M96.44,60.84s-.19,7.91,11.26,11.54c0,0-5.21-.63-8.92,7.14L94.17,62.36A2.44,2.44,0,0,1,96.44,60.84Z"/><path class="cls-7" d="M117.51,61.09s1.29,6.42-9.81,11.25c0,0,4.44-.11,8.14,7.66l4-17.67A2.11,2.11,0,0,0,117.51,61.09Z"/><path class="cls-8" d="M103.17,73.88,106,78.26a2,2,0,0,0,3.35,0l2.84-3.52a5.06,5.06,0,0,0-4.64-2.41C104.33,72.33,103.17,73.88,103.17,73.88Z"/><path class="cls-8" d="M104.64,103l1.82-23.9s.18-2,1.22-2,1.45,2,1.45,2l2,24.39-3.43,11.39Z"/><polygon class="cls-9" points="94.17 62.37 107.7 114.91 93.91 85.88 97.16 79.03 91.43 74.57 94.17 62.37"/><polygon class="cls-9" points="119.87 62.33 107.7 114.91 121.5 85.88 118.25 79.03 123.98 74.57 119.87 62.33"/><path class="cls-10" d="M107.93,59.21l-1.9,0c-8.11-.06-13-6.69-12.93-14.8l.29-34A5.44,5.44,0,0,1,98.88,5l10.46-.77a11.61,11.61,0,0,1,11.52,11.72l-.27,28.25C120.59,52.5,116.16,59.21,107.93,59.21Z"/><path class="cls-11" d="M119.19,23,119,35s-1.45-7.88,4-5.77l-.62-13-3.61-.15Z"/><ellipse class="cls-10" cx="121.32" cy="32.57" rx="5.8" ry="7.03" transform="translate(-0.27 1.02) rotate(-0.48)"/><path class="cls-12" d="M120.78,35.62a3.25,3.25,0,1,0-.13-6.5Z"/><path class="cls-11" d="M117,12.3s3.35-2.87-2.82-5.88l1.63,0s2,1.12,4.13,4.74Z"/><path class="cls-11" d="M115.88,16.38c0,3.58,2.23,6.49,5,6.49V12.72c0-1.69-1.41-2.8-2.53-1.94A7.06,7.06,0,0,0,115.88,16.38Z"/><path class="cls-13" d="M91.17,18.38C90,5.82,98.25,4.21,106.57,4.21c16.5,0,15.06,14.17,15.06,14.17"/><path class="cls-11" d="M93.75,23l.15,12s1.58-7.92-3.84-5.81l.26-13.86,3.84.76Z"/><path class="cls-11" d="M94.94,11.54S91.27,9.28,97.79,6l.85-.92a10.85,10.85,0,0,0-7.69,6Z"/><path class="cls-13" d="M113.79,3.28s-3.22,5.25-9.15,1.37"/><path class="cls-11" d="M108.49,4.16a6.77,6.77,0,0,0-3.21.35c-1.81,1,1.84,1.39,3.49,1.57s2.72,0,2.72-.69S109.52,4.18,108.49,4.16Z"/><path class="cls-14" d="M105.71,34.06h2.55a.89.89,0,0,1,.88.89h0a.89.89,0,0,1-.89.89H105.7a.89.89,0,0,1,0-1.77Z"/><ellipse class="cls-10" cx="93.55" cy="32.57" rx="7.03" ry="5.8" transform="translate(60.2 125.85) rotate(-89.52)"/><path class="cls-12" d="M94.09,35.62a3.25,3.25,0,0,1,.14-6.5Z"/><path class="cls-7" d="M107,50.06a5.88,5.88,0,0,0,5.88-5.86l-11.74,0A5.87,5.87,0,0,0,107,50.06Z"/><circle class="cls-15" cx="101.56" cy="29.24" r="1.26"/><circle class="cls-15" cx="112.55" cy="29.25" r="1.26"/><path class="cls-16" d="M98.07,24a6.79,6.79,0,0,1,2.49-.66,5.29,5.29,0,0,1,2.37.62"/><path class="cls-16" d="M115.89,24a6.88,6.88,0,0,0-2.43-.86,5.2,5.2,0,0,0-2.41.43"/><path class="cls-11" d="M107,36.86a7.62,7.62,0,0,0-7.63,7.61l15.24,0A7.62,7.62,0,0,0,107,36.86Z"/><path class="cls-11" d="M96.6,16.38c0,3.58-2.22,6.49-5,6.49V11.43c0-.91.67-1.55,1.33-1.31C95.06,10.88,96.6,13.4,96.6,16.38Z"/><line class="cls-3" x1="148.26" y1="102.83" x2="128.58" y2="121.71"/><line class="cls-3" x1="64.8" y1="104.16" x2="86.24" y2="121.71"/><rect class="cls-17" x="87.39" y="87.95" width="38.92" height="55.79" rx="6.49" ry="6.49" transform="translate(-0.16 0.15) rotate(-0.08)"/><circle class="cls-18" cx="106.25" cy="92.6" r="0.75"/><line class="cls-19" x1="126.43" y1="116.49" x2="126.34" y2="126.94"/><line class="cls-19" x1="88.57" y1="116.49" x2="88.48" y2="126.94"/></g><circle class="cls-20" cx="106.53" cy="118.17" r="15"/><line class="cls-21" x1="106.53" y1="111.28" x2="106.53" y2="125.07"/><line class="cls-21" x1="113.42" y1="118.17" x2="99.64" y2="118.17"/></g></svg>